<?xml version="1.0" encoding="UTF-8" standalone="no"?><svg xmlns="http://www.w3.org/2000/svg" xmlns:xlink="http://www.w3.org/1999/xlink" contentScriptType="application/ecmascript" contentStyleType="text/css" height="2467px" preserveAspectRatio="none" style="width:919px;height:2467px;" version="1.1" viewBox="0 0 919 2467" width="919px" zoomAndPan="magnify"><defs><filter height="300%" id="fbe4gj68l6uf8" width="300%" x="-1" y="-1"><feGaussianBlur result="blurOut" stdDeviation="2.0"/><feColorMatrix in="blurOut" result="blurOut2" type="matrix" values="0 0 0 0 0 0 0 0 0 0 0 0 0 0 0 0 0 0 .4 0"/><feOffset dx="4.0" dy="4.0" in="blurOut2" result="blurOut3"/><feBlend in="SourceGraphic" in2="blurOut3" mode="normal"/></filter></defs><g><!--cluster item_lang--><polygon fill="#FFFFFF" filter="url(#fbe4gj68l6uf8)" points="22,24,102,24,109,46.2969,897,46.2969,897,2262,22,2262,22,24" style="stroke: #000000; stroke-width: 1.5;"/><line style="stroke: #000000; stroke-width: 1.5;" x1="22" x2="109" y1="46.2969" y2="46.2969"/><text fill="#000000" font-family="sans-serif" font-size="14" font-weight="bold" lengthAdjust="spacingAndGlyphs" textLength="74" x="26" y="38.9951">item_lang</text><!--class item_lang.Model--><rect fill="#FEFECE" filter="url(#fbe4gj68l6uf8)" height="48" id="item_lang.Model" style="stroke: #A80036; stroke-width: 1.5;" width="69" x="269.5" y="59"/><ellipse cx="284.5" cy="75" fill="#ADD1B2" rx="11" ry="11" style="stroke: #A80036; stroke-width: 1.0;"/><path d="M287.4688,80.6406 Q286.8906,80.9375 286.25,81.0781 Q285.6094,81.2344 284.9063,81.2344 Q282.4063,81.2344 281.0781,79.5938 Q279.7656,77.9375 279.7656,74.8125 Q279.7656,71.6875 281.0781,70.0313 Q282.4063,68.375 284.9063,68.375 Q285.6094,68.375 286.25,68.5313 Q286.9063,68.6875 287.4688,68.9844 L287.4688,71.7031 Q286.8438,71.125 286.25,70.8594 Q285.6563,70.5781 285.0313,70.5781 Q283.6875,70.5781 283,71.6563 Q282.3125,72.7188 282.3125,74.8125 Q282.3125,76.9063 283,77.9844 Q283.6875,79.0469 285.0313,79.0469 Q285.6563,79.0469 286.25,78.7813 Q286.8438,78.5 287.4688,77.9219 L287.4688,80.6406 Z "/><text fill="#000000" font-family="sans-serif" font-size="12" lengthAdjust="spacingAndGlyphs" textLength="37" x="298.5" y="79.1543">Model</text><line style="stroke: #A80036; stroke-width: 1.5;" x1="270.5" x2="337.5" y1="91" y2="91"/><line style="stroke: #A80036; stroke-width: 1.5;" x1="270.5" x2="337.5" y1="99" y2="99"/><!--class item_lang.NestedPackage--><rect fill="#FEFECE" filter="url(#fbe4gj68l6uf8)" height="73.6094" id="item_lang.NestedPackage" style="stroke: #A80036; stroke-width: 1.5;" width="131" x="259.5" y="301"/><ellipse cx="274.5" cy="317" fill="#ADD1B2" rx="11" ry="11" style="stroke: #A80036; stroke-width: 1.0;"/><path d="M277.4688,322.6406 Q276.8906,322.9375 276.25,323.0781 Q275.6094,323.2344 274.9063,323.2344 Q272.4063,323.2344 271.0781,321.5938 Q269.7656,319.9375 269.7656,316.8125 Q269.7656,313.6875 271.0781,312.0313 Q272.4063,310.375 274.9063,310.375 Q275.6094,310.375 276.25,310.5313 Q276.9063,310.6875 277.4688,310.9844 L277.4688,313.7031 Q276.8438,313.125 276.25,312.8594 Q275.6563,312.5781 275.0313,312.5781 Q273.6875,312.5781 273,313.6563 Q272.3125,314.7188 272.3125,316.8125 Q272.3125,318.9063 273,319.9844 Q273.6875,321.0469 275.0313,321.0469 Q275.6563,321.0469 276.25,320.7813 Q276.8438,320.5 277.4688,319.9219 L277.4688,322.6406 Z "/><text fill="#000000" font-family="sans-serif" font-size="12" lengthAdjust="spacingAndGlyphs" textLength="99" x="288.5" y="321.1543">NestedPackage</text><line style="stroke: #A80036; stroke-width: 1.5;" x1="260.5" x2="389.5" y1="333" y2="333"/><text fill="#000000" font-family="sans-serif" font-size="11" lengthAdjust="spacingAndGlyphs" textLength="55" x="265.5" y="347.2104">name : ID</text><text fill="#000000" font-family="sans-serif" font-size="11" lengthAdjust="spacingAndGlyphs" textLength="117" x="265.5" y="360.0151">description : STRING</text><line style="stroke: #A80036; stroke-width: 1.5;" x1="260.5" x2="389.5" y1="366.6094" y2="366.6094"/><!--class item_lang.Package--><rect fill="#FEFECE" filter="url(#fbe4gj68l6uf8)" height="73.6094" id="item_lang.Package" style="stroke: #A80036; stroke-width: 1.5;" width="129" x="239.5" y="167"/><ellipse cx="273.85" cy="183" fill="#ADD1B2" rx="11" ry="11" style="stroke: #A80036; stroke-width: 1.0;"/><path d="M276.8188,188.6406 Q276.2406,188.9375 275.6,189.0781 Q274.9594,189.2344 274.2563,189.2344 Q271.7563,189.2344 270.4281,187.5938 Q269.1156,185.9375 269.1156,182.8125 Q269.1156,179.6875 270.4281,178.0313 Q271.7563,176.375 274.2563,176.375 Q274.9594,176.375 275.6,176.5313 Q276.2563,176.6875 276.8188,176.9844 L276.8188,179.7031 Q276.1938,179.125 275.6,178.8594 Q275.0063,178.5781 274.3813,178.5781 Q273.0375,178.5781 272.35,179.6563 Q271.6625,180.7188 271.6625,182.8125 Q271.6625,184.9063 272.35,185.9844 Q273.0375,187.0469 274.3813,187.0469 Q275.0063,187.0469 275.6,186.7813 Q276.1938,186.5 276.8188,185.9219 L276.8188,188.6406 Z "/><text fill="#000000" font-family="sans-serif" font-size="12" lengthAdjust="spacingAndGlyphs" textLength="54" x="292.15" y="187.1543">Package</text><line style="stroke: #A80036; stroke-width: 1.5;" x1="240.5" x2="367.5" y1="199" y2="199"/><text fill="#000000" font-family="sans-serif" font-size="11" lengthAdjust="spacingAndGlyphs" textLength="55" x="245.5" y="213.2104">name : ID</text><text fill="#000000" font-family="sans-serif" font-size="11" lengthAdjust="spacingAndGlyphs" textLength="117" x="245.5" y="226.0151">description : STRING</text><line style="stroke: #A80036; stroke-width: 1.5;" x1="240.5" x2="367.5" y1="232.6094" y2="232.6094"/><!--class item_lang.ExtPackage--><rect fill="#FEFECE" filter="url(#fbe4gj68l6uf8)" height="73.6094" id="item_lang.ExtPackage" style="stroke: #A80036; stroke-width: 1.5;" width="129" x="77.5" y="301"/><ellipse cx="103.3" cy="317" fill="#ADD1B2" rx="11" ry="11" style="stroke: #A80036; stroke-width: 1.0;"/><path d="M106.2688,322.6406 Q105.6906,322.9375 105.05,323.0781 Q104.4094,323.2344 103.7063,323.2344 Q101.2063,323.2344 99.8781,321.5938 Q98.5656,319.9375 98.5656,316.8125 Q98.5656,313.6875 99.8781,312.0313 Q101.2063,310.375 103.7063,310.375 Q104.4094,310.375 105.05,310.5313 Q105.7063,310.6875 106.2688,310.9844 L106.2688,313.7031 Q105.6438,313.125 105.05,312.8594 Q104.4563,312.5781 103.8313,312.5781 Q102.4875,312.5781 101.8,313.6563 Q101.1125,314.7188 101.1125,316.8125 Q101.1125,318.9063 101.8,319.9844 Q102.4875,321.0469 103.8313,321.0469 Q104.4563,321.0469 105.05,320.7813 Q105.6438,320.5 106.2688,319.9219 L106.2688,322.6406 Z "/><text fill="#000000" font-family="sans-serif" font-size="12" lengthAdjust="spacingAndGlyphs" textLength="73" x="119.7" y="321.1543">ExtPackage</text><line style="stroke: #A80036; stroke-width: 1.5;" x1="78.5" x2="205.5" y1="333" y2="333"/><text fill="#000000" font-family="sans-serif" font-size="11" lengthAdjust="spacingAndGlyphs" textLength="55" x="83.5" y="347.2104">name : ID</text><text fill="#000000" font-family="sans-serif" font-size="11" lengthAdjust="spacingAndGlyphs" textLength="117" x="83.5" y="360.0151">description : STRING</text><line style="stroke: #A80036; stroke-width: 1.5;" x1="78.5" x2="205.5" y1="366.6094" y2="366.6094"/><!--class item_lang.Struct--><rect fill="#FEFECE" filter="url(#fbe4gj68l6uf8)" height="60.8047" id="item_lang.Struct" style="stroke: #A80036; stroke-width: 1.5;" width="70" x="470" y="569"/><ellipse cx="485" cy="585" fill="#ADD1B2" rx="11" ry="11" style="stroke: #A80036; stroke-width: 1.0;"/><path d="M487.9688,590.6406 Q487.3906,590.9375 486.75,591.0781 Q486.1094,591.2344 485.4063,591.2344 Q482.9063,591.2344 481.5781,589.5938 Q480.2656,587.9375 480.2656,584.8125 Q480.2656,581.6875 481.5781,580.0313 Q482.9063,578.375 485.4063,578.375 Q486.1094,578.375 486.75,578.5313 Q487.4063,578.6875 487.9688,578.9844 L487.9688,581.7031 Q487.3438,581.125 486.75,580.8594 Q486.1563,580.5781 485.5313,580.5781 Q484.1875,580.5781 483.5,581.6563 Q482.8125,582.7188 482.8125,584.8125 Q482.8125,586.9063 483.5,587.9844 Q484.1875,589.0469 485.5313,589.0469 Q486.1563,589.0469 486.75,588.7813 Q487.3438,588.5 487.9688,587.9219 L487.9688,590.6406 Z "/><text fill="#000000" font-family="sans-serif" font-size="12" lengthAdjust="spacingAndGlyphs" textLength="38" x="499" y="589.1543">Struct</text><line style="stroke: #A80036; stroke-width: 1.5;" x1="471" x2="539" y1="601" y2="601"/><text fill="#000000" font-family="sans-serif" font-size="11" lengthAdjust="spacingAndGlyphs" textLength="55" x="476" y="615.2104">name : ID</text><line style="stroke: #A80036; stroke-width: 1.5;" x1="471" x2="539" y1="621.8047" y2="621.8047"/><!--class item_lang.RawType--><rect fill="#FEFECE" filter="url(#fbe4gj68l6uf8)" height="86.4141" id="item_lang.RawType" style="stroke: #A80036; stroke-width: 1.5;" width="161" x="719.5" y="1314"/><ellipse cx="768.75" cy="1330" fill="#ADD1B2" rx="11" ry="11" style="stroke: #A80036; stroke-width: 1.0;"/><path d="M771.7188,1335.6406 Q771.1406,1335.9375 770.5,1336.0781 Q769.8594,1336.2344 769.1563,1336.2344 Q766.6563,1336.2344 765.3281,1334.5938 Q764.0156,1332.9375 764.0156,1329.8125 Q764.0156,1326.6875 765.3281,1325.0313 Q766.6563,1323.375 769.1563,1323.375 Q769.8594,1323.375 770.5,1323.5313 Q771.1563,1323.6875 771.7188,1323.9844 L771.7188,1326.7031 Q771.0938,1326.125 770.5,1325.8594 Q769.9063,1325.5781 769.2813,1325.5781 Q767.9375,1325.5781 767.25,1326.6563 Q766.5625,1327.7188 766.5625,1329.8125 Q766.5625,1331.9063 767.25,1332.9844 Q767.9375,1334.0469 769.2813,1334.0469 Q769.9063,1334.0469 770.5,1333.7813 Q771.0938,1333.5 771.7188,1332.9219 L771.7188,1335.6406 Z "/><text fill="#000000" font-family="sans-serif" font-size="12" lengthAdjust="spacingAndGlyphs" textLength="54" x="789.25" y="1334.1543">RawType</text><line style="stroke: #A80036; stroke-width: 1.5;" x1="720.5" x2="879.5" y1="1346" y2="1346"/><text fill="#000000" font-family="sans-serif" font-size="11" lengthAdjust="spacingAndGlyphs" textLength="55" x="725.5" y="1360.2104">name : ID</text><text fill="#000000" font-family="sans-serif" font-size="11" lengthAdjust="spacingAndGlyphs" textLength="149" x="725.5" y="1373.0151">internaltype : InternalType</text><text fill="#000000" font-family="sans-serif" font-size="11" lengthAdjust="spacingAndGlyphs" textLength="51" x="725.5" y="1385.8198">bits : INT</text><line style="stroke: #A80036; stroke-width: 1.5;" x1="720.5" x2="879.5" y1="1392.4141" y2="1392.4141"/><!--class item_lang.Enum--><rect fill="#FEFECE" filter="url(#fbe4gj68l6uf8)" height="73.6094" id="item_lang.Enum" style="stroke: #A80036; stroke-width: 1.5;" width="129" x="677.5" y="1046"/><ellipse cx="720.4" cy="1062" fill="#ADD1B2" rx="11" ry="11" style="stroke: #A80036; stroke-width: 1.0;"/><path d="M723.3688,1067.6406 Q722.7906,1067.9375 722.15,1068.0781 Q721.5094,1068.2344 720.8063,1068.2344 Q718.3063,1068.2344 716.9781,1066.5938 Q715.6656,1064.9375 715.6656,1061.8125 Q715.6656,1058.6875 716.9781,1057.0313 Q718.3063,1055.375 720.8063,1055.375 Q721.5094,1055.375 722.15,1055.5313 Q722.8063,1055.6875 723.3688,1055.9844 L723.3688,1058.7031 Q722.7438,1058.125 722.15,1057.8594 Q721.5563,1057.5781 720.9313,1057.5781 Q719.5875,1057.5781 718.9,1058.6563 Q718.2125,1059.7188 718.2125,1061.8125 Q718.2125,1063.9063 718.9,1064.9844 Q719.5875,1066.0469 720.9313,1066.0469 Q721.5563,1066.0469 722.15,1065.7813 Q722.7438,1065.5 723.3688,1064.9219 L723.3688,1067.6406 Z "/><text fill="#000000" font-family="sans-serif" font-size="12" lengthAdjust="spacingAndGlyphs" textLength="35" x="740.6" y="1066.1543">Enum</text><line style="stroke: #A80036; stroke-width: 1.5;" x1="678.5" x2="805.5" y1="1078" y2="1078"/><text fill="#000000" font-family="sans-serif" font-size="11" lengthAdjust="spacingAndGlyphs" textLength="55" x="683.5" y="1092.2104">name : ID</text><text fill="#000000" font-family="sans-serif" font-size="11" lengthAdjust="spacingAndGlyphs" textLength="117" x="683.5" y="1105.0151">description : STRING</text><line style="stroke: #A80036; stroke-width: 1.5;" x1="678.5" x2="805.5" y1="1111.6094" y2="1111.6094"/><!--class item_lang.Type--><rect fill="#FEFECE" filter="url(#fbe4gj68l6uf8)" height="53.9375" id="item_lang.Type" style="stroke: #A80036; stroke-width: 1.5;" width="94" x="284" y="445"/><ellipse cx="299" cy="463.9688" fill="#ADD1B2" rx="11" ry="11" style="stroke: #A80036; stroke-width: 1.0;"/><path d="M301.9688,469.6094 Q301.3906,469.9063 300.75,470.0469 Q300.1094,470.2031 299.4063,470.2031 Q296.9063,470.2031 295.5781,468.5625 Q294.2656,466.9063 294.2656,463.7813 Q294.2656,460.6563 295.5781,459 Q296.9063,457.3438 299.4063,457.3438 Q300.1094,457.3438 300.75,457.5 Q301.4063,457.6563 301.9688,457.9531 L301.9688,460.6719 Q301.3438,460.0938 300.75,459.8281 Q300.1563,459.5469 299.5313,459.5469 Q298.1875,459.5469 297.5,460.625 Q296.8125,461.6875 296.8125,463.7813 Q296.8125,465.875 297.5,466.9531 Q298.1875,468.0156 299.5313,468.0156 Q300.1563,468.0156 300.75,467.75 Q301.3438,467.4688 301.9688,466.8906 L301.9688,469.6094 Z "/><text fill="#000000" font-family="sans-serif" font-size="12" font-style="italic" lengthAdjust="spacingAndGlyphs" textLength="66" x="311" y="461.1387">«abstract»</text><text fill="#000000" font-family="sans-serif" font-size="12" lengthAdjust="spacingAndGlyphs" textLength="29" x="329.5" y="475.1074">Type</text><line style="stroke: #A80036; stroke-width: 1.5;" x1="285" x2="377" y1="482.9375" y2="482.9375"/><line style="stroke: #A80036; stroke-width: 1.5;" x1="285" x2="377" y1="490.9375" y2="490.9375"/><!--class item_lang.Attribute--><rect fill="#FEFECE" filter="url(#fbe4gj68l6uf8)" height="53.9375" id="item_lang.Attribute" style="stroke: #A80036; stroke-width: 1.5;" width="94" x="392" y="690"/><ellipse cx="407" cy="708.9688" fill="#ADD1B2" rx="11" ry="11" style="stroke: #A80036; stroke-width: 1.0;"/><path d="M409.9688,714.6094 Q409.3906,714.9063 408.75,715.0469 Q408.1094,715.2031 407.4063,715.2031 Q404.9063,715.2031 403.5781,713.5625 Q402.2656,711.9063 402.2656,708.7813 Q402.2656,705.6563 403.5781,704 Q404.9063,702.3438 407.4063,702.3438 Q408.1094,702.3438 408.75,702.5 Q409.4063,702.6563 409.9688,702.9531 L409.9688,705.6719 Q409.3438,705.0938 408.75,704.8281 Q408.1563,704.5469 407.5313,704.5469 Q406.1875,704.5469 405.5,705.625 Q404.8125,706.6875 404.8125,708.7813 Q404.8125,710.875 405.5,711.9531 Q406.1875,713.0156 407.5313,713.0156 Q408.1563,713.0156 408.75,712.75 Q409.3438,712.4688 409.9688,711.8906 L409.9688,714.6094 Z "/><text fill="#000000" font-family="sans-serif" font-size="12" font-style="italic" lengthAdjust="spacingAndGlyphs" textLength="66" x="419" y="706.1387">«abstract»</text><text fill="#000000" font-family="sans-serif" font-size="12" lengthAdjust="spacingAndGlyphs" textLength="55" x="424.5" y="720.1074">Attribute</text><line style="stroke: #A80036; stroke-width: 1.5;" x1="393" x2="485" y1="727.9375" y2="727.9375"/><line style="stroke: #A80036; stroke-width: 1.5;" x1="393" x2="485" y1="735.9375" y2="735.9375"/><!--class item_lang.VariantAttribute--><rect fill="#FEFECE" filter="url(#fbe4gj68l6uf8)" height="60.8047" id="item_lang.VariantAttribute" style="stroke: #A80036; stroke-width: 1.5;" width="132" x="401" y="810.5"/><ellipse cx="416" cy="826.5" fill="#ADD1B2" rx="11" ry="11" style="stroke: #A80036; stroke-width: 1.0;"/><path d="M418.9688,832.1406 Q418.3906,832.4375 417.75,832.5781 Q417.1094,832.7344 416.4063,832.7344 Q413.9063,832.7344 412.5781,831.0938 Q411.2656,829.4375 411.2656,826.3125 Q411.2656,823.1875 412.5781,821.5313 Q413.9063,819.875 416.4063,819.875 Q417.1094,819.875 417.75,820.0313 Q418.4063,820.1875 418.9688,820.4844 L418.9688,823.2031 Q418.3438,822.625 417.75,822.3594 Q417.1563,822.0781 416.5313,822.0781 Q415.1875,822.0781 414.5,823.1563 Q413.8125,824.2188 413.8125,826.3125 Q413.8125,828.4063 414.5,829.4844 Q415.1875,830.5469 416.5313,830.5469 Q417.1563,830.5469 417.75,830.2813 Q418.3438,830 418.9688,829.4219 L418.9688,832.1406 Z "/><text fill="#000000" font-family="sans-serif" font-size="12" lengthAdjust="spacingAndGlyphs" textLength="100" x="430" y="830.6543">VariantAttribute</text><line style="stroke: #A80036; stroke-width: 1.5;" x1="402" x2="532" y1="842.5" y2="842.5"/><text fill="#000000" font-family="sans-serif" font-size="11" lengthAdjust="spacingAndGlyphs" textLength="55" x="407" y="856.7104">name : ID</text><line style="stroke: #A80036; stroke-width: 1.5;" x1="402" x2="532" y1="863.3047" y2="863.3047"/><!--class item_lang.ScalarAttribute--><rect fill="#FEFECE" filter="url(#fbe4gj68l6uf8)" height="73.6094" id="item_lang.ScalarAttribute" style="stroke: #A80036; stroke-width: 1.5;" width="179" x="186.5" y="1180"/><ellipse cx="225.35" cy="1196" fill="#ADD1B2" rx="11" ry="11" style="stroke: #A80036; stroke-width: 1.0;"/><path d="M228.3188,1201.6406 Q227.7406,1201.9375 227.1,1202.0781 Q226.4594,1202.2344 225.7563,1202.2344 Q223.2563,1202.2344 221.9281,1200.5938 Q220.6156,1198.9375 220.6156,1195.8125 Q220.6156,1192.6875 221.9281,1191.0313 Q223.2563,1189.375 225.7563,1189.375 Q226.4594,1189.375 227.1,1189.5313 Q227.7563,1189.6875 228.3188,1189.9844 L228.3188,1192.7031 Q227.6938,1192.125 227.1,1191.8594 Q226.5063,1191.5781 225.8813,1191.5781 Q224.5375,1191.5781 223.85,1192.6563 Q223.1625,1193.7188 223.1625,1195.8125 Q223.1625,1197.9063 223.85,1198.9844 Q224.5375,1200.0469 225.8813,1200.0469 Q226.5063,1200.0469 227.1,1199.7813 Q227.6938,1199.5 228.3188,1198.9219 L228.3188,1201.6406 Z "/><text fill="#000000" font-family="sans-serif" font-size="12" lengthAdjust="spacingAndGlyphs" textLength="94" x="244.65" y="1200.1543">ScalarAttribute</text><line style="stroke: #A80036; stroke-width: 1.5;" x1="187.5" x2="364.5" y1="1212" y2="1212"/><text fill="#000000" font-family="sans-serif" font-size="11" lengthAdjust="spacingAndGlyphs" textLength="167" x="192.5" y="1226.2104">embedded : optional&lt;BOOL&gt;</text><text fill="#000000" font-family="sans-serif" font-size="11" lengthAdjust="spacingAndGlyphs" textLength="55" x="192.5" y="1239.0151">name : ID</text><line style="stroke: #A80036; stroke-width: 1.5;" x1="187.5" x2="364.5" y1="1245.6094" y2="1245.6094"/><!--class item_lang.ArrayAttribute--><rect fill="#FEFECE" filter="url(#fbe4gj68l6uf8)" height="73.6094" id="item_lang.ArrayAttribute" style="stroke: #A80036; stroke-width: 1.5;" width="179" x="112.5" y="804"/><ellipse cx="154.5" cy="820" fill="#ADD1B2" rx="11" ry="11" style="stroke: #A80036; stroke-width: 1.0;"/><path d="M157.4688,825.6406 Q156.8906,825.9375 156.25,826.0781 Q155.6094,826.2344 154.9063,826.2344 Q152.4063,826.2344 151.0781,824.5938 Q149.7656,822.9375 149.7656,819.8125 Q149.7656,816.6875 151.0781,815.0313 Q152.4063,813.375 154.9063,813.375 Q155.6094,813.375 156.25,813.5313 Q156.9063,813.6875 157.4688,813.9844 L157.4688,816.7031 Q156.8438,816.125 156.25,815.8594 Q155.6563,815.5781 155.0313,815.5781 Q153.6875,815.5781 153,816.6563 Q152.3125,817.7188 152.3125,819.8125 Q152.3125,821.9063 153,822.9844 Q153.6875,824.0469 155.0313,824.0469 Q155.6563,824.0469 156.25,823.7813 Q156.8438,823.5 157.4688,822.9219 L157.4688,825.6406 Z "/><text fill="#000000" font-family="sans-serif" font-size="12" lengthAdjust="spacingAndGlyphs" textLength="87" x="174.5" y="824.1543">ArrayAttribute</text><line style="stroke: #A80036; stroke-width: 1.5;" x1="113.5" x2="290.5" y1="836" y2="836"/><text fill="#000000" font-family="sans-serif" font-size="11" lengthAdjust="spacingAndGlyphs" textLength="167" x="118.5" y="850.2104">embedded : optional&lt;BOOL&gt;</text><text fill="#000000" font-family="sans-serif" font-size="11" lengthAdjust="spacingAndGlyphs" textLength="55" x="118.5" y="863.0151">name : ID</text><line style="stroke: #A80036; stroke-width: 1.5;" x1="113.5" x2="290.5" y1="869.6094" y2="869.6094"/><!--class item_lang.FormulaElement--><rect fill="#FEFECE" filter="url(#fbe4gj68l6uf8)" height="53.9375" id="item_lang.FormulaElement" style="stroke: #A80036; stroke-width: 1.5;" width="133" x="397.5" y="1056"/><ellipse cx="412.5" cy="1074.9688" fill="#ADD1B2" rx="11" ry="11" style="stroke: #A80036; stroke-width: 1.0;"/><path d="M415.4688,1080.6094 Q414.8906,1080.9063 414.25,1081.0469 Q413.6094,1081.2031 412.9063,1081.2031 Q410.4063,1081.2031 409.0781,1079.5625 Q407.7656,1077.9063 407.7656,1074.7813 Q407.7656,1071.6563 409.0781,1070 Q410.4063,1068.3438 412.9063,1068.3438 Q413.6094,1068.3438 414.25,1068.5 Q414.9063,1068.6563 415.4688,1068.9531 L415.4688,1071.6719 Q414.8438,1071.0938 414.25,1070.8281 Q413.6563,1070.5469 413.0313,1070.5469 Q411.6875,1070.5469 411,1071.625 Q410.3125,1072.6875 410.3125,1074.7813 Q410.3125,1076.875 411,1077.9531 Q411.6875,1079.0156 413.0313,1079.0156 Q413.6563,1079.0156 414.25,1078.75 Q414.8438,1078.4688 415.4688,1077.8906 L415.4688,1080.6094 Z "/><text fill="#000000" font-family="sans-serif" font-size="12" font-style="italic" lengthAdjust="spacingAndGlyphs" textLength="66" x="444" y="1072.1387">«abstract»</text><text fill="#000000" font-family="sans-serif" font-size="12" lengthAdjust="spacingAndGlyphs" textLength="101" x="426.5" y="1086.1074">FormulaElement</text><line style="stroke: #A80036; stroke-width: 1.5;" x1="398.5" x2="529.5" y1="1093.9375" y2="1093.9375"/><line style="stroke: #A80036; stroke-width: 1.5;" x1="398.5" x2="529.5" y1="1101.9375" y2="1101.9375"/><!--class item_lang.EnumEntry--><rect fill="#FEFECE" filter="url(#fbe4gj68l6uf8)" height="73.6094" id="item_lang.EnumEntry" style="stroke: #A80036; stroke-width: 1.5;" width="129" x="438.5" y="1180"/><ellipse cx="467" cy="1196" fill="#ADD1B2" rx="11" ry="11" style="stroke: #A80036; stroke-width: 1.0;"/><path d="M469.9688,1201.6406 Q469.3906,1201.9375 468.75,1202.0781 Q468.1094,1202.2344 467.4063,1202.2344 Q464.9063,1202.2344 463.5781,1200.5938 Q462.2656,1198.9375 462.2656,1195.8125 Q462.2656,1192.6875 463.5781,1191.0313 Q464.9063,1189.375 467.4063,1189.375 Q468.1094,1189.375 468.75,1189.5313 Q469.4063,1189.6875 469.9688,1189.9844 L469.9688,1192.7031 Q469.3438,1192.125 468.75,1191.8594 Q468.1563,1191.5781 467.5313,1191.5781 Q466.1875,1191.5781 465.5,1192.6563 Q464.8125,1193.7188 464.8125,1195.8125 Q464.8125,1197.9063 465.5,1198.9844 Q466.1875,1200.0469 467.5313,1200.0469 Q468.1563,1200.0469 468.75,1199.7813 Q469.3438,1199.5 469.9688,1198.9219 L469.9688,1201.6406 Z "/><text fill="#000000" font-family="sans-serif" font-size="12" lengthAdjust="spacingAndGlyphs" textLength="67" x="484" y="1200.1543">EnumEntry</text><line style="stroke: #A80036; stroke-width: 1.5;" x1="439.5" x2="566.5" y1="1212" y2="1212"/><text fill="#000000" font-family="sans-serif" font-size="11" lengthAdjust="spacingAndGlyphs" textLength="55" x="444.5" y="1226.2104">name : ID</text><text fill="#000000" font-family="sans-serif" font-size="11" lengthAdjust="spacingAndGlyphs" textLength="117" x="444.5" y="1239.0151">description : STRING</text><line style="stroke: #A80036; stroke-width: 1.5;" x1="439.5" x2="566.5" y1="1245.6094" y2="1245.6094"/><!--class item_lang.Dim--><rect fill="#FEFECE" filter="url(#fbe4gj68l6uf8)" height="48" id="item_lang.Dim" style="stroke: #A80036; stroke-width: 1.5;" width="55" x="112.5" y="1059"/><ellipse cx="127.5" cy="1075" fill="#ADD1B2" rx="11" ry="11" style="stroke: #A80036; stroke-width: 1.0;"/><path d="M130.4688,1080.6406 Q129.8906,1080.9375 129.25,1081.0781 Q128.6094,1081.2344 127.9063,1081.2344 Q125.4063,1081.2344 124.0781,1079.5938 Q122.7656,1077.9375 122.7656,1074.8125 Q122.7656,1071.6875 124.0781,1070.0313 Q125.4063,1068.375 127.9063,1068.375 Q128.6094,1068.375 129.25,1068.5313 Q129.9063,1068.6875 130.4688,1068.9844 L130.4688,1071.7031 Q129.8438,1071.125 129.25,1070.8594 Q128.6563,1070.5781 128.0313,1070.5781 Q126.6875,1070.5781 126,1071.6563 Q125.3125,1072.7188 125.3125,1074.8125 Q125.3125,1076.9063 126,1077.9844 Q126.6875,1079.0469 128.0313,1079.0469 Q128.6563,1079.0469 129.25,1078.7813 Q129.8438,1078.5 130.4688,1077.9219 L130.4688,1080.6406 Z "/><text fill="#000000" font-family="sans-serif" font-size="12" lengthAdjust="spacingAndGlyphs" textLength="23" x="141.5" y="1079.1543">Dim</text><line style="stroke: #A80036; stroke-width: 1.5;" x1="113.5" x2="166.5" y1="1091" y2="1091"/><line style="stroke: #A80036; stroke-width: 1.5;" x1="113.5" x2="166.5" y1="1099" y2="1099"/><!--class item_lang.AttrRef--><rect fill="#FEFECE" filter="url(#fbe4gj68l6uf8)" height="48" id="item_lang.AttrRef" style="stroke: #A80036; stroke-width: 1.5;" width="75" x="397.5" y="938"/><ellipse cx="412.5" cy="954" fill="#ADD1B2" rx="11" ry="11" style="stroke: #A80036; stroke-width: 1.0;"/><path d="M415.4688,959.6406 Q414.8906,959.9375 414.25,960.0781 Q413.6094,960.2344 412.9063,960.2344 Q410.4063,960.2344 409.0781,958.5938 Q407.7656,956.9375 407.7656,953.8125 Q407.7656,950.6875 409.0781,949.0313 Q410.4063,947.375 412.9063,947.375 Q413.6094,947.375 414.25,947.5313 Q414.9063,947.6875 415.4688,947.9844 L415.4688,950.7031 Q414.8438,950.125 414.25,949.8594 Q413.6563,949.5781 413.0313,949.5781 Q411.6875,949.5781 411,950.6563 Q410.3125,951.7188 410.3125,953.8125 Q410.3125,955.9063 411,956.9844 Q411.6875,958.0469 413.0313,958.0469 Q413.6563,958.0469 414.25,957.7813 Q414.8438,957.5 415.4688,956.9219 L415.4688,959.6406 Z "/><text fill="#000000" font-family="sans-serif" font-size="12" lengthAdjust="spacingAndGlyphs" textLength="43" x="426.5" y="958.1543">AttrRef</text><line style="stroke: #A80036; stroke-width: 1.5;" x1="398.5" x2="471.5" y1="970" y2="970"/><line style="stroke: #A80036; stroke-width: 1.5;" x1="398.5" x2="471.5" y1="978" y2="978"/><!--class item_lang.VariantMapping--><rect fill="#FEFECE" filter="url(#fbe4gj68l6uf8)" height="48" id="item_lang.VariantMapping" style="stroke: #A80036; stroke-width: 1.5;" width="130" x="508" y="938"/><ellipse cx="523" cy="954" fill="#ADD1B2" rx="11" ry="11" style="stroke: #A80036; stroke-width: 1.0;"/><path d="M525.9688,959.6406 Q525.3906,959.9375 524.75,960.0781 Q524.1094,960.2344 523.4063,960.2344 Q520.9063,960.2344 519.5781,958.5938 Q518.2656,956.9375 518.2656,953.8125 Q518.2656,950.6875 519.5781,949.0313 Q520.9063,947.375 523.4063,947.375 Q524.1094,947.375 524.75,947.5313 Q525.4063,947.6875 525.9688,947.9844 L525.9688,950.7031 Q525.3438,950.125 524.75,949.8594 Q524.1563,949.5781 523.5313,949.5781 Q522.1875,949.5781 521.5,950.6563 Q520.8125,951.7188 520.8125,953.8125 Q520.8125,955.9063 521.5,956.9844 Q522.1875,958.0469 523.5313,958.0469 Q524.1563,958.0469 524.75,957.7813 Q525.3438,957.5 525.9688,956.9219 L525.9688,959.6406 Z "/><text fill="#000000" font-family="sans-serif" font-size="12" lengthAdjust="spacingAndGlyphs" textLength="98" x="537" y="958.1543">VariantMapping</text><line style="stroke: #A80036; stroke-width: 1.5;" x1="509" x2="637" y1="970" y2="970"/><line style="stroke: #A80036; stroke-width: 1.5;" x1="509" x2="637" y1="978" y2="978"/><!--class item_lang.Import--><rect fill="#FEFECE" filter="url(#fbe4gj68l6uf8)" height="60.8047" id="item_lang.Import" style="stroke: #A80036; stroke-width: 1.5;" width="121" x="403.5" y="173.5"/><ellipse cx="440.55" cy="189.5" fill="#ADD1B2" rx="11" ry="11" style="stroke: #A80036; stroke-width: 1.0;"/><path d="M443.5188,195.1406 Q442.9406,195.4375 442.3,195.5781 Q441.6594,195.7344 440.9563,195.7344 Q438.4563,195.7344 437.1281,194.0938 Q435.8156,192.4375 435.8156,189.3125 Q435.8156,186.1875 437.1281,184.5313 Q438.4563,182.875 440.9563,182.875 Q441.6594,182.875 442.3,183.0313 Q442.9563,183.1875 443.5188,183.4844 L443.5188,186.2031 Q442.8938,185.625 442.3,185.3594 Q441.7063,185.0781 441.0813,185.0781 Q439.7375,185.0781 439.05,186.1563 Q438.3625,187.2188 438.3625,189.3125 Q438.3625,191.4063 439.05,192.4844 Q439.7375,193.5469 441.0813,193.5469 Q441.7063,193.5469 442.3,193.2813 Q442.8938,193 443.5188,192.4219 L443.5188,195.1406 Z "/><text fill="#000000" font-family="sans-serif" font-size="12" lengthAdjust="spacingAndGlyphs" textLength="40" x="459.45" y="193.6543">Import</text><line style="stroke: #A80036; stroke-width: 1.5;" x1="404.5" x2="523.5" y1="205.5" y2="205.5"/><text fill="#000000" font-family="sans-serif" font-size="11" lengthAdjust="spacingAndGlyphs" textLength="109" x="409.5" y="219.7104">importURI : STRING</text><line style="stroke: #A80036; stroke-width: 1.5;" x1="404.5" x2="523.5" y1="226.3047" y2="226.3047"/><!--class item_lang.Formula--><rect fill="#FEFECE" filter="url(#fbe4gj68l6uf8)" height="53.9375" id="item_lang.Formula" style="stroke: #A80036; stroke-width: 1.5;" width="94" x="474" y="1622.5"/><ellipse cx="489" cy="1641.4688" fill="#ADD1B2" rx="11" ry="11" style="stroke: #A80036; stroke-width: 1.0;"/><path d="M491.9688,1647.1094 Q491.3906,1647.4063 490.75,1647.5469 Q490.1094,1647.7031 489.4063,1647.7031 Q486.9063,1647.7031 485.5781,1646.0625 Q484.2656,1644.4063 484.2656,1641.2813 Q484.2656,1638.1563 485.5781,1636.5 Q486.9063,1634.8438 489.4063,1634.8438 Q490.1094,1634.8438 490.75,1635 Q491.4063,1635.1563 491.9688,1635.4531 L491.9688,1638.1719 Q491.3438,1637.5938 490.75,1637.3281 Q490.1563,1637.0469 489.5313,1637.0469 Q488.1875,1637.0469 487.5,1638.125 Q486.8125,1639.1875 486.8125,1641.2813 Q486.8125,1643.375 487.5,1644.4531 Q488.1875,1645.5156 489.5313,1645.5156 Q490.1563,1645.5156 490.75,1645.25 Q491.3438,1644.9688 491.9688,1644.3906 L491.9688,1647.1094 Z "/><text fill="#000000" font-family="sans-serif" font-size="12" font-style="italic" lengthAdjust="spacingAndGlyphs" textLength="66" x="501" y="1638.6387">«abstract»</text><text fill="#000000" font-family="sans-serif" font-size="12" lengthAdjust="spacingAndGlyphs" textLength="50" x="509" y="1652.6074">Formula</text><line style="stroke: #A80036; stroke-width: 1.5;" x1="475" x2="567" y1="1660.4375" y2="1660.4375"/><line style="stroke: #A80036; stroke-width: 1.5;" x1="475" x2="567" y1="1668.4375" y2="1668.4375"/><!--class item_lang.Sum--><rect fill="#FEFECE" filter="url(#fbe4gj68l6uf8)" height="48" id="item_lang.Sum" style="stroke: #A80036; stroke-width: 1.5;" width="59" x="491.5" y="1740"/><ellipse cx="506.5" cy="1756" fill="#ADD1B2" rx="11" ry="11" style="stroke: #A80036; stroke-width: 1.0;"/><path d="M509.4688,1761.6406 Q508.8906,1761.9375 508.25,1762.0781 Q507.6094,1762.2344 506.9063,1762.2344 Q504.4063,1762.2344 503.0781,1760.5938 Q501.7656,1758.9375 501.7656,1755.8125 Q501.7656,1752.6875 503.0781,1751.0313 Q504.4063,1749.375 506.9063,1749.375 Q507.6094,1749.375 508.25,1749.5313 Q508.9063,1749.6875 509.4688,1749.9844 L509.4688,1752.7031 Q508.8438,1752.125 508.25,1751.8594 Q507.6563,1751.5781 507.0313,1751.5781 Q505.6875,1751.5781 505,1752.6563 Q504.3125,1753.7188 504.3125,1755.8125 Q504.3125,1757.9063 505,1758.9844 Q505.6875,1760.0469 507.0313,1760.0469 Q507.6563,1760.0469 508.25,1759.7813 Q508.8438,1759.5 509.4688,1758.9219 L509.4688,1761.6406 Z "/><text fill="#000000" font-family="sans-serif" font-size="12" lengthAdjust="spacingAndGlyphs" textLength="27" x="520.5" y="1760.1543">Sum</text><line style="stroke: #A80036; stroke-width: 1.5;" x1="492.5" x2="549.5" y1="1772" y2="1772"/><line style="stroke: #A80036; stroke-width: 1.5;" x1="492.5" x2="549.5" y1="1780" y2="1780"/><!--class item_lang.Dif--><rect fill="#FEFECE" filter="url(#fbe4gj68l6uf8)" height="48" id="item_lang.Dif" style="stroke: #A80036; stroke-width: 1.5;" width="48" x="481" y="1848"/><ellipse cx="496" cy="1864" fill="#ADD1B2" rx="11" ry="11" style="stroke: #A80036; stroke-width: 1.0;"/><path d="M498.9688,1869.6406 Q498.3906,1869.9375 497.75,1870.0781 Q497.1094,1870.2344 496.4063,1870.2344 Q493.9063,1870.2344 492.5781,1868.5938 Q491.2656,1866.9375 491.2656,1863.8125 Q491.2656,1860.6875 492.5781,1859.0313 Q493.9063,1857.375 496.4063,1857.375 Q497.1094,1857.375 497.75,1857.5313 Q498.4063,1857.6875 498.9688,1857.9844 L498.9688,1860.7031 Q498.3438,1860.125 497.75,1859.8594 Q497.1563,1859.5781 496.5313,1859.5781 Q495.1875,1859.5781 494.5,1860.6563 Q493.8125,1861.7188 493.8125,1863.8125 Q493.8125,1865.9063 494.5,1866.9844 Q495.1875,1868.0469 496.5313,1868.0469 Q497.1563,1868.0469 497.75,1867.7813 Q498.3438,1867.5 498.9688,1866.9219 L498.9688,1869.6406 Z "/><text fill="#000000" font-family="sans-serif" font-size="12" lengthAdjust="spacingAndGlyphs" textLength="16" x="510" y="1868.1543">Dif</text><line style="stroke: #A80036; stroke-width: 1.5;" x1="482" x2="528" y1="1880" y2="1880"/><line style="stroke: #A80036; stroke-width: 1.5;" x1="482" x2="528" y1="1888" y2="1888"/><!--class item_lang.Mul--><rect fill="#FEFECE" filter="url(#fbe4gj68l6uf8)" height="48" id="item_lang.Mul" style="stroke: #A80036; stroke-width: 1.5;" width="53" x="477.5" y="1956"/><ellipse cx="492.5" cy="1972" fill="#ADD1B2" rx="11" ry="11" style="stroke: #A80036; stroke-width: 1.0;"/><path d="M495.4688,1977.6406 Q494.8906,1977.9375 494.25,1978.0781 Q493.6094,1978.2344 492.9063,1978.2344 Q490.4063,1978.2344 489.0781,1976.5938 Q487.7656,1974.9375 487.7656,1971.8125 Q487.7656,1968.6875 489.0781,1967.0313 Q490.4063,1965.375 492.9063,1965.375 Q493.6094,1965.375 494.25,1965.5313 Q494.9063,1965.6875 495.4688,1965.9844 L495.4688,1968.7031 Q494.8438,1968.125 494.25,1967.8594 Q493.6563,1967.5781 493.0313,1967.5781 Q491.6875,1967.5781 491,1968.6563 Q490.3125,1969.7188 490.3125,1971.8125 Q490.3125,1973.9063 491,1974.9844 Q491.6875,1976.0469 493.0313,1976.0469 Q493.6563,1976.0469 494.25,1975.7813 Q494.8438,1975.5 495.4688,1974.9219 L495.4688,1977.6406 Z "/><text fill="#000000" font-family="sans-serif" font-size="12" lengthAdjust="spacingAndGlyphs" textLength="21" x="506.5" y="1976.1543">Mul</text><line style="stroke: #A80036; stroke-width: 1.5;" x1="478.5" x2="529.5" y1="1988" y2="1988"/><line style="stroke: #A80036; stroke-width: 1.5;" x1="478.5" x2="529.5" y1="1996" y2="1996"/><!--class item_lang.Div--><rect fill="#FEFECE" filter="url(#fbe4gj68l6uf8)" height="48" id="item_lang.Div" style="stroke: #A80036; stroke-width: 1.5;" width="50" x="480" y="2064"/><ellipse cx="495" cy="2080" fill="#ADD1B2" rx="11" ry="11" style="stroke: #A80036; stroke-width: 1.0;"/><path d="M497.9688,2085.6406 Q497.3906,2085.9375 496.75,2086.0781 Q496.1094,2086.2344 495.4063,2086.2344 Q492.9063,2086.2344 491.5781,2084.5938 Q490.2656,2082.9375 490.2656,2079.8125 Q490.2656,2076.6875 491.5781,2075.0313 Q492.9063,2073.375 495.4063,2073.375 Q496.1094,2073.375 496.75,2073.5313 Q497.4063,2073.6875 497.9688,2073.9844 L497.9688,2076.7031 Q497.3438,2076.125 496.75,2075.8594 Q496.1563,2075.5781 495.5313,2075.5781 Q494.1875,2075.5781 493.5,2076.6563 Q492.8125,2077.7188 492.8125,2079.8125 Q492.8125,2081.9063 493.5,2082.9844 Q494.1875,2084.0469 495.5313,2084.0469 Q496.1563,2084.0469 496.75,2083.7813 Q497.3438,2083.5 497.9688,2082.9219 L497.9688,2085.6406 Z "/><text fill="#000000" font-family="sans-serif" font-size="12" lengthAdjust="spacingAndGlyphs" textLength="18" x="509" y="2084.1543">Div</text><line style="stroke: #A80036; stroke-width: 1.5;" x1="481" x2="529" y1="2096" y2="2096"/><line style="stroke: #A80036; stroke-width: 1.5;" x1="481" x2="529" y1="2104" y2="2104"/><!--class item_lang.Val--><rect fill="#FEFECE" filter="url(#fbe4gj68l6uf8)" height="73.6094" id="item_lang.Val" style="stroke: #A80036; stroke-width: 1.5;" width="227" x="453.5" y="2172"/><ellipse cx="553.25" cy="2188" fill="#ADD1B2" rx="11" ry="11" style="stroke: #A80036; stroke-width: 1.0;"/><path d="M556.2188,2193.6406 Q555.6406,2193.9375 555,2194.0781 Q554.3594,2194.2344 553.6563,2194.2344 Q551.1563,2194.2344 549.8281,2192.5938 Q548.5156,2190.9375 548.5156,2187.8125 Q548.5156,2184.6875 549.8281,2183.0313 Q551.1563,2181.375 553.6563,2181.375 Q554.3594,2181.375 555,2181.5313 Q555.6563,2181.6875 556.2188,2181.9844 L556.2188,2184.7031 Q555.5938,2184.125 555,2183.8594 Q554.4063,2183.5781 553.7813,2183.5781 Q552.4375,2183.5781 551.75,2184.6563 Q551.0625,2185.7188 551.0625,2187.8125 Q551.0625,2189.9063 551.75,2190.9844 Q552.4375,2192.0469 553.7813,2192.0469 Q554.4063,2192.0469 555,2191.7813 Q555.5938,2191.5 556.2188,2190.9219 L556.2188,2193.6406 Z "/><text fill="#000000" font-family="sans-serif" font-size="12" lengthAdjust="spacingAndGlyphs" textLength="19" x="573.75" y="2192.1543">Val</text><line style="stroke: #A80036; stroke-width: 1.5;" x1="454.5" x2="679.5" y1="2204" y2="2204"/><text fill="#000000" font-family="sans-serif" font-size="11" lengthAdjust="spacingAndGlyphs" textLength="215" x="459.5" y="2218.2104">valueClassificator : ValueClassificator</text><text fill="#000000" font-family="sans-serif" font-size="11" lengthAdjust="spacingAndGlyphs" textLength="104" x="459.5" y="2231.0151">value : ExtNumber</text><line style="stroke: #A80036; stroke-width: 1.5;" x1="454.5" x2="679.5" y1="2237.6094" y2="2237.6094"/><!--class item_lang.PropertySet--><rect fill="#FEFECE" filter="url(#fbe4gj68l6uf8)" height="60.8047" id="item_lang.PropertySet" style="stroke: #A80036; stroke-width: 1.5;" width="106" x="83" y="441.5"/><ellipse cx="98" cy="457.5" fill="#ADD1B2" rx="11" ry="11" style="stroke: #A80036; stroke-width: 1.0;"/><path d="M100.9688,463.1406 Q100.3906,463.4375 99.75,463.5781 Q99.1094,463.7344 98.4063,463.7344 Q95.9063,463.7344 94.5781,462.0938 Q93.2656,460.4375 93.2656,457.3125 Q93.2656,454.1875 94.5781,452.5313 Q95.9063,450.875 98.4063,450.875 Q99.1094,450.875 99.75,451.0313 Q100.4063,451.1875 100.9688,451.4844 L100.9688,454.2031 Q100.3438,453.625 99.75,453.3594 Q99.1563,453.0781 98.5313,453.0781 Q97.1875,453.0781 96.5,454.1563 Q95.8125,455.2188 95.8125,457.3125 Q95.8125,459.4063 96.5,460.4844 Q97.1875,461.5469 98.5313,461.5469 Q99.1563,461.5469 99.75,461.2813 Q100.3438,461 100.9688,460.4219 L100.9688,463.1406 Z "/><text fill="#000000" font-family="sans-serif" font-size="12" lengthAdjust="spacingAndGlyphs" textLength="74" x="112" y="461.6543">PropertySet</text><line style="stroke: #A80036; stroke-width: 1.5;" x1="84" x2="188" y1="473.5" y2="473.5"/><text fill="#000000" font-family="sans-serif" font-size="11" lengthAdjust="spacingAndGlyphs" textLength="55" x="89" y="487.7104">name : ID</text><line style="stroke: #A80036; stroke-width: 1.5;" x1="84" x2="188" y1="494.3047" y2="494.3047"/><!--class item_lang.PropertyDefinition--><rect fill="#FEFECE" filter="url(#fbe4gj68l6uf8)" height="99.2188" id="item_lang.PropertyDefinition" style="stroke: #A80036; stroke-width: 1.5;" width="164" x="38" y="1460"/><ellipse cx="62" cy="1476" fill="#ADD1B2" rx="11" ry="11" style="stroke: #A80036; stroke-width: 1.0;"/><path d="M64.9688,1481.6406 Q64.3906,1481.9375 63.75,1482.0781 Q63.1094,1482.2344 62.4063,1482.2344 Q59.9063,1482.2344 58.5781,1480.5938 Q57.2656,1478.9375 57.2656,1475.8125 Q57.2656,1472.6875 58.5781,1471.0313 Q59.9063,1469.375 62.4063,1469.375 Q63.1094,1469.375 63.75,1469.5313 Q64.4063,1469.6875 64.9688,1469.9844 L64.9688,1472.7031 Q64.3438,1472.125 63.75,1471.8594 Q63.1563,1471.5781 62.5313,1471.5781 Q61.1875,1471.5781 60.5,1472.6563 Q59.8125,1473.7188 59.8125,1475.8125 Q59.8125,1477.9063 60.5,1478.9844 Q61.1875,1480.0469 62.5313,1480.0469 Q63.1563,1480.0469 63.75,1479.7813 Q64.3438,1479.5 64.9688,1478.9219 L64.9688,1481.6406 Z "/><text fill="#000000" font-family="sans-serif" font-size="12" lengthAdjust="spacingAndGlyphs" textLength="112" x="78" y="1480.1543">PropertyDefinition</text><line style="stroke: #A80036; stroke-width: 1.5;" x1="39" x2="201" y1="1492" y2="1492"/><text fill="#000000" font-family="sans-serif" font-size="11" lengthAdjust="spacingAndGlyphs" textLength="152" x="44" y="1506.2104">optional : optional&lt;BOOL&gt;</text><text fill="#000000" font-family="sans-serif" font-size="11" lengthAdjust="spacingAndGlyphs" textLength="55" x="44" y="1519.0151">name : ID</text><text fill="#000000" font-family="sans-serif" font-size="11" lengthAdjust="spacingAndGlyphs" textLength="149" x="44" y="1531.8198">internaltype : InternalType</text><text fill="#000000" font-family="sans-serif" font-size="11" lengthAdjust="spacingAndGlyphs" textLength="117" x="44" y="1544.6245">description : STRING</text><line style="stroke: #A80036; stroke-width: 1.5;" x1="39" x2="201" y1="1551.2188" y2="1551.2188"/><!--class item_lang.ApplicableFor--><rect fill="#FEFECE" filter="url(#fbe4gj68l6uf8)" height="60.8047" id="item_lang.ApplicableFor" style="stroke: #A80036; stroke-width: 1.5;" width="153" x="43.5" y="1619"/><ellipse cx="75.15" cy="1635" fill="#ADD1B2" rx="11" ry="11" style="stroke: #A80036; stroke-width: 1.0;"/><path d="M78.1188,1640.6406 Q77.5406,1640.9375 76.9,1641.0781 Q76.2594,1641.2344 75.5563,1641.2344 Q73.0563,1641.2344 71.7281,1639.5938 Q70.4156,1637.9375 70.4156,1634.8125 Q70.4156,1631.6875 71.7281,1630.0313 Q73.0563,1628.375 75.5563,1628.375 Q76.2594,1628.375 76.9,1628.5313 Q77.5563,1628.6875 78.1188,1628.9844 L78.1188,1631.7031 Q77.4938,1631.125 76.9,1630.8594 Q76.3063,1630.5781 75.6813,1630.5781 Q74.3375,1630.5781 73.65,1631.6563 Q72.9625,1632.7188 72.9625,1634.8125 Q72.9625,1636.9063 73.65,1637.9844 Q74.3375,1639.0469 75.6813,1639.0469 Q76.3063,1639.0469 76.9,1638.7813 Q77.4938,1638.5 78.1188,1637.9219 L78.1188,1640.6406 Z "/><text fill="#000000" font-family="sans-serif" font-size="12" lengthAdjust="spacingAndGlyphs" textLength="84" x="92.85" y="1639.1543">ApplicableFor</text><line style="stroke: #A80036; stroke-width: 1.5;" x1="44.5" x2="195.5" y1="1651" y2="1651"/><text fill="#000000" font-family="sans-serif" font-size="11" lengthAdjust="spacingAndGlyphs" textLength="141" x="49.5" y="1665.2104">what : ApplicableForType</text><line style="stroke: #A80036; stroke-width: 1.5;" x1="44.5" x2="195.5" y1="1671.8047" y2="1671.8047"/><!--class item_lang.Property--><rect fill="#FEFECE" filter="url(#fbe4gj68l6uf8)" height="48" id="item_lang.Property" style="stroke: #A80036; stroke-width: 1.5;" width="85" x="255.5" y="1333"/><ellipse cx="270.5" cy="1349" fill="#ADD1B2" rx="11" ry="11" style="stroke: #A80036; stroke-width: 1.0;"/><path d="M273.4688,1354.6406 Q272.8906,1354.9375 272.25,1355.0781 Q271.6094,1355.2344 270.9063,1355.2344 Q268.4063,1355.2344 267.0781,1353.5938 Q265.7656,1351.9375 265.7656,1348.8125 Q265.7656,1345.6875 267.0781,1344.0313 Q268.4063,1342.375 270.9063,1342.375 Q271.6094,1342.375 272.25,1342.5313 Q272.9063,1342.6875 273.4688,1342.9844 L273.4688,1345.7031 Q272.8438,1345.125 272.25,1344.8594 Q271.6563,1344.5781 271.0313,1344.5781 Q269.6875,1344.5781 269,1345.6563 Q268.3125,1346.7188 268.3125,1348.8125 Q268.3125,1350.9063 269,1351.9844 Q269.6875,1353.0469 271.0313,1353.0469 Q271.6563,1353.0469 272.25,1352.7813 Q272.8438,1352.5 273.4688,1351.9219 L273.4688,1354.6406 Z "/><text fill="#000000" font-family="sans-serif" font-size="12" lengthAdjust="spacingAndGlyphs" textLength="53" x="284.5" y="1353.1543">Property</text><line style="stroke: #A80036; stroke-width: 1.5;" x1="256.5" x2="339.5" y1="1365" y2="1365"/><line style="stroke: #A80036; stroke-width: 1.5;" x1="256.5" x2="339.5" y1="1373" y2="1373"/><!--class item_lang.Constants--><rect fill="#FEFECE" filter="url(#fbe4gj68l6uf8)" height="73.6094" id="item_lang.Constants" style="stroke: #A80036; stroke-width: 1.5;" width="129" x="415.5" y="435"/><ellipse cx="445.35" cy="451" fill="#ADD1B2" rx="11" ry="11" style="stroke: #A80036; stroke-width: 1.0;"/><path d="M448.3188,456.6406 Q447.7406,456.9375 447.1,457.0781 Q446.4594,457.2344 445.7563,457.2344 Q443.2563,457.2344 441.9281,455.5938 Q440.6156,453.9375 440.6156,450.8125 Q440.6156,447.6875 441.9281,446.0313 Q443.2563,444.375 445.7563,444.375 Q446.4594,444.375 447.1,444.5313 Q447.7563,444.6875 448.3188,444.9844 L448.3188,447.7031 Q447.6938,447.125 447.1,446.8594 Q446.5063,446.5781 445.8813,446.5781 Q444.5375,446.5781 443.85,447.6563 Q443.1625,448.7188 443.1625,450.8125 Q443.1625,452.9063 443.85,453.9844 Q444.5375,455.0469 445.8813,455.0469 Q446.5063,455.0469 447.1,454.7813 Q447.6938,454.5 448.3188,453.9219 L448.3188,456.6406 Z "/><text fill="#000000" font-family="sans-serif" font-size="12" lengthAdjust="spacingAndGlyphs" textLength="64" x="462.65" y="455.1543">Constants</text><line style="stroke: #A80036; stroke-width: 1.5;" x1="416.5" x2="543.5" y1="467" y2="467"/><text fill="#000000" font-family="sans-serif" font-size="11" lengthAdjust="spacingAndGlyphs" textLength="55" x="421.5" y="481.2104">name : ID</text><text fill="#000000" font-family="sans-serif" font-size="11" lengthAdjust="spacingAndGlyphs" textLength="117" x="421.5" y="494.0151">description : STRING</text><line style="stroke: #A80036; stroke-width: 1.5;" x1="416.5" x2="543.5" y1="500.6094" y2="500.6094"/><!--class item_lang.Constant--><rect fill="#FEFECE" filter="url(#fbe4gj68l6uf8)" height="73.6094" id="item_lang.Constant" style="stroke: #A80036; stroke-width: 1.5;" width="129" x="677.5" y="1180"/><ellipse cx="710.5" cy="1196" fill="#ADD1B2" rx="11" ry="11" style="stroke: #A80036; stroke-width: 1.0;"/><path d="M713.4688,1201.6406 Q712.8906,1201.9375 712.25,1202.0781 Q711.6094,1202.2344 710.9063,1202.2344 Q708.4063,1202.2344 707.0781,1200.5938 Q705.7656,1198.9375 705.7656,1195.8125 Q705.7656,1192.6875 707.0781,1191.0313 Q708.4063,1189.375 710.9063,1189.375 Q711.6094,1189.375 712.25,1189.5313 Q712.9063,1189.6875 713.4688,1189.9844 L713.4688,1192.7031 Q712.8438,1192.125 712.25,1191.8594 Q711.6563,1191.5781 711.0313,1191.5781 Q709.6875,1191.5781 709,1192.6563 Q708.3125,1193.7188 708.3125,1195.8125 Q708.3125,1197.9063 709,1198.9844 Q709.6875,1200.0469 711.0313,1200.0469 Q711.6563,1200.0469 712.25,1199.7813 Q712.8438,1199.5 713.4688,1198.9219 L713.4688,1201.6406 Z "/><text fill="#000000" font-family="sans-serif" font-size="12" lengthAdjust="spacingAndGlyphs" textLength="57" x="728.5" y="1200.1543">Constant</text><line style="stroke: #A80036; stroke-width: 1.5;" x1="678.5" x2="805.5" y1="1212" y2="1212"/><text fill="#000000" font-family="sans-serif" font-size="11" lengthAdjust="spacingAndGlyphs" textLength="55" x="683.5" y="1226.2104">name : ID</text><text fill="#000000" font-family="sans-serif" font-size="11" lengthAdjust="spacingAndGlyphs" textLength="117" x="683.5" y="1239.0151">description : STRING</text><line style="stroke: #A80036; stroke-width: 1.5;" x1="678.5" x2="805.5" y1="1245.6094" y2="1245.6094"/><!--class item_lang.TextValue--><rect fill="#FEFECE" filter="url(#fbe4gj68l6uf8)" height="60.8047" id="item_lang.TextValue" style="stroke: #A80036; stroke-width: 1.5;" width="93" x="274.5" y="1479"/><ellipse cx="289.5" cy="1495" fill="#ADD1B2" rx="11" ry="11" style="stroke: #A80036; stroke-width: 1.0;"/><path d="M292.4688,1500.6406 Q291.8906,1500.9375 291.25,1501.0781 Q290.6094,1501.2344 289.9063,1501.2344 Q287.4063,1501.2344 286.0781,1499.5938 Q284.7656,1497.9375 284.7656,1494.8125 Q284.7656,1491.6875 286.0781,1490.0313 Q287.4063,1488.375 289.9063,1488.375 Q290.6094,1488.375 291.25,1488.5313 Q291.9063,1488.6875 292.4688,1488.9844 L292.4688,1491.7031 Q291.8438,1491.125 291.25,1490.8594 Q290.6563,1490.5781 290.0313,1490.5781 Q288.6875,1490.5781 288,1491.6563 Q287.3125,1492.7188 287.3125,1494.8125 Q287.3125,1496.9063 288,1497.9844 Q288.6875,1499.0469 290.0313,1499.0469 Q290.6563,1499.0469 291.25,1498.7813 Q291.8438,1498.5 292.4688,1497.9219 L292.4688,1500.6406 Z "/><text fill="#000000" font-family="sans-serif" font-size="12" lengthAdjust="spacingAndGlyphs" textLength="61" x="303.5" y="1499.1543">TextValue</text><line style="stroke: #A80036; stroke-width: 1.5;" x1="275.5" x2="366.5" y1="1511" y2="1511"/><text fill="#000000" font-family="sans-serif" font-size="11" lengthAdjust="spacingAndGlyphs" textLength="60" x="280.5" y="1525.2104">x : STRING</text><line style="stroke: #A80036; stroke-width: 1.5;" x1="275.5" x2="366.5" y1="1531.8047" y2="1531.8047"/><!--class item_lang.NumberValue--><rect fill="#FEFECE" filter="url(#fbe4gj68l6uf8)" height="48" id="item_lang.NumberValue" style="stroke: #A80036; stroke-width: 1.5;" width="116" x="403" y="1485.5"/><ellipse cx="418" cy="1501.5" fill="#ADD1B2" rx="11" ry="11" style="stroke: #A80036; stroke-width: 1.0;"/><path d="M420.9688,1507.1406 Q420.3906,1507.4375 419.75,1507.5781 Q419.1094,1507.7344 418.4063,1507.7344 Q415.9063,1507.7344 414.5781,1506.0938 Q413.2656,1504.4375 413.2656,1501.3125 Q413.2656,1498.1875 414.5781,1496.5313 Q415.9063,1494.875 418.4063,1494.875 Q419.1094,1494.875 419.75,1495.0313 Q420.4063,1495.1875 420.9688,1495.4844 L420.9688,1498.2031 Q420.3438,1497.625 419.75,1497.3594 Q419.1563,1497.0781 418.5313,1497.0781 Q417.1875,1497.0781 416.5,1498.1563 Q415.8125,1499.2188 415.8125,1501.3125 Q415.8125,1503.4063 416.5,1504.4844 Q417.1875,1505.5469 418.5313,1505.5469 Q419.1563,1505.5469 419.75,1505.2813 Q420.3438,1505 420.9688,1504.4219 L420.9688,1507.1406 Z "/><text fill="#000000" font-family="sans-serif" font-size="12" lengthAdjust="spacingAndGlyphs" textLength="84" x="432" y="1505.6543">NumberValue</text><line style="stroke: #A80036; stroke-width: 1.5;" x1="404" x2="518" y1="1517.5" y2="1517.5"/><line style="stroke: #A80036; stroke-width: 1.5;" x1="404" x2="518" y1="1525.5" y2="1525.5"/><!--link item_lang.Model to item_lang.Import--><path d="M345.89,115.16 C370.14,133.19 400.47,155.75 424.33,173.49 " fill="none" id="item_lang.Model-item_lang.Import" style="stroke: #A80036; stroke-width: 1.0;"/><polygon fill="#A80036" points="335.23,107.23,337.6613,114.0189,344.8631,114.3856,342.4318,107.5968,335.23,107.23" style="stroke: #A80036; stroke-width: 1.0;"/><text fill="#000000" font-family="sans-serif" font-size="13" lengthAdjust="spacingAndGlyphs" textLength="23" x="390.1366" y="162.2781">0..*</text><!--link item_lang.Model to item_lang.ExtPackage--><path d="M267.16,116.08 C251.92,130.6 234.84,148.61 222,167 C192.21,209.66 168.49,265.15 154.83,300.93 " fill="none" id="item_lang.Model-item_lang.ExtPackage" style="stroke: #A80036; stroke-width: 1.0;"/><polygon fill="#A80036" points="276.85,107.07,269.732,108.2252,268.0607,115.24,275.1787,114.0847,276.85,107.07" style="stroke: #A80036; stroke-width: 1.0;"/><text fill="#000000" font-family="sans-serif" font-size="13" lengthAdjust="spacingAndGlyphs" textLength="23" x="132.0752" y="289.8276">1..*</text><!--link item_lang.Model to item_lang.Package--><path d="M304,120.48 C304,135.16 304,152.05 304,166.71 " fill="none" id="item_lang.Model-item_lang.Package" style="stroke: #A80036; stroke-width: 1.0;"/><polygon fill="#A80036" points="304,107.23,300,113.23,304,119.23,308,113.23,304,107.23" style="stroke: #A80036; stroke-width: 1.0;"/><!--link item_lang.NestedPackage to item_lang.NestedPackage--><path d="M403.62,314.71 C416.58,318.01 425.5,325.78 425.5,338 C425.5,353.96 410.28,362.32 390.73,363.07 " fill="none" id="item_lang.NestedPackage-item_lang.NestedPackage" style="stroke: #A80036; stroke-width: 1.0;"/><polygon fill="#A80036" points="390.73,312.93,396.1241,317.7157,402.6164,314.5772,397.2223,309.7915,390.73,312.93" style="stroke: #A80036; stroke-width: 1.0;"/><!--link item_lang.NestedPackage to item_lang.PropertySet--><path d="M250.9,382.33 C221.95,401.69 190.38,424.02 167.5,441.43 " fill="none" id="item_lang.NestedPackage-item_lang.PropertySet" style="stroke: #A80036; stroke-width: 1.0;"/><polygon fill="#FFFFFF" points="261.85,375.07,254.6389,375.0502,251.8472,381.699,259.0583,381.7188,261.85,375.07" style="stroke: #A80036; stroke-width: 1.0;"/><!--link item_lang.NestedPackage to item_lang.PropertySet--><path d="M274.95,382.9 C248.45,402.29 216.1,424.56 189.15,441.86 " fill="none" id="item_lang.NestedPackage-item_lang.PropertySet" style="stroke: #A80036; stroke-width: 1.0;"/><polygon fill="#A80036" points="285.54,375.07,278.3374,375.4194,275.8896,382.2023,283.0922,381.853,285.54,375.07" style="stroke: #A80036; stroke-width: 1.0;"/><text fill="#000000" font-family="sans-serif" font-size="13" lengthAdjust="spacingAndGlyphs" textLength="23" x="175.7816" y="430.2606">1..*</text><!--link item_lang.NestedPackage to item_lang.Type--><path d="M327.24,388.22 C328.11,407.34 329.07,428.48 329.8,444.61 " fill="none" id="item_lang.NestedPackage-item_lang.Type" style="stroke: #A80036; stroke-width: 1.0;"/><polygon fill="#A80036" points="326.64,375.07,322.9141,381.244,327.1801,387.0578,330.906,380.8839,326.64,375.07" style="stroke: #A80036; stroke-width: 1.0;"/><text fill="#000000" font-family="sans-serif" font-size="13" lengthAdjust="spacingAndGlyphs" textLength="23" x="304.0219" y="434.0661">1..*</text><!--link item_lang.NestedPackage to item_lang.Constants--><path d="M377.38,383.6 C397.02,400.33 419.08,419.12 437.7,434.97 " fill="none" id="item_lang.NestedPackage-item_lang.Constants" style="stroke: #A80036; stroke-width: 1.0;"/><polygon fill="#A80036" points="367.35,375.07,369.3255,382.0052,376.4871,382.8491,374.5116,375.9138,367.35,375.07" style="stroke: #A80036; stroke-width: 1.0;"/><text fill="#000000" font-family="sans-serif" font-size="13" lengthAdjust="spacingAndGlyphs" textLength="23" x="404.7806" y="423.8749">1..*</text><!--link item_lang.Package to item_lang.NestedPackage--><path d="M311.84,254.26 C314.3,269.76 316.98,286.57 319.27,300.97 " fill="none" id="item_lang.Package-item_lang.NestedPackage" style="stroke: #A80036; stroke-width: 1.0;"/><polygon fill="#A80036" points="309.74,241.07,306.7333,247.6244,311.6271,252.9207,314.6338,246.3663,309.74,241.07" style="stroke: #A80036; stroke-width: 1.0;"/><!--link item_lang.Package to item_lang.PropertySet--><path d="M226.05,210.71 C164.4,219.62 82.87,242.47 43,301 C12.15,346.29 55.47,406.13 93.2,441.4 " fill="none" id="item_lang.Package-item_lang.PropertySet" style="stroke: #A80036; stroke-width: 1.0;"/><polygon fill="#FFFFFF" points="239.27,208.96,232.7984,205.7791,227.3731,210.5295,233.8447,213.7104,239.27,208.96" style="stroke: #A80036; stroke-width: 1.0;"/><!--link item_lang.Package to item_lang.PropertySet--><path d="M226.59,215.9 C175.25,227.51 111.73,251.49 78,301 C47.15,346.29 90.47,406.13 118.04,441.4 " fill="none" id="item_lang.Package-item_lang.PropertySet" style="stroke: #A80036; stroke-width: 1.0;"/><polygon fill="#A80036" points="239.35,213.21,232.6528,210.5364,227.6091,215.6901,234.3062,218.3637,239.35,213.21" style="stroke: #A80036; stroke-width: 1.0;"/><text fill="#000000" font-family="sans-serif" font-size="13" lengthAdjust="spacingAndGlyphs" textLength="23" x="88.9639" y="430.6426">1..*</text><!--link item_lang.Package to item_lang.Type--><path d="M379.43,247.32 C398.08,261.75 415.67,279.72 426,301 C440.37,330.59 438.51,344.58 426,375 C414.41,403.19 390.09,427.51 368.96,444.61 " fill="none" id="item_lang.Package-item_lang.Type" style="stroke: #A80036; stroke-width: 1.0;"/><polygon fill="#A80036" points="368.68,239.45,371.1546,246.2232,378.3585,246.5441,375.884,239.7709,368.68,239.45" style="stroke: #A80036; stroke-width: 1.0;"/><text fill="#000000" font-family="sans-serif" font-size="13" lengthAdjust="spacingAndGlyphs" textLength="23" x="351.7481" y="434.0661">1..*</text><!--link item_lang.Package to item_lang.Constants--><path d="M379.52,244.16 C401.97,259.17 424.65,278.25 440,301 C467.31,341.46 476.09,398.27 478.84,434.86 " fill="none" id="item_lang.Package-item_lang.Constants" style="stroke: #A80036; stroke-width: 1.0;"/><polygon fill="#A80036" points="368.55,237.13,371.4367,243.7381,378.6467,243.6151,375.7601,237.007,368.55,237.13" style="stroke: #A80036; stroke-width: 1.0;"/><text fill="#000000" font-family="sans-serif" font-size="13" lengthAdjust="spacingAndGlyphs" textLength="23" x="453.5849" y="424.022">1..*</text><!--link item_lang.ExtPackage to item_lang.PropertySet--><path d="M139.76,388.25 C138.95,406.05 138.06,425.59 137.35,441.21 " fill="none" id="item_lang.ExtPackage-item_lang.PropertySet" style="stroke: #A80036; stroke-width: 1.0;"/><polygon fill="#FFFFFF" points="140.36,375.07,136.094,380.8839,139.8199,387.0578,144.0859,381.244,140.36,375.07" style="stroke: #A80036; stroke-width: 1.0;"/><!--link item_lang.ExtPackage to item_lang.ExtPackage--><path d="M219.52,314.63 C232.52,317.89 241.5,325.68 241.5,338 C241.5,354.1 226.19,362.46 206.6,363.09 " fill="none" id="item_lang.ExtPackage-item_lang.ExtPackage" style="stroke: #A80036; stroke-width: 1.0;"/><polygon fill="#A80036" points="206.6,312.91,212.0201,317.6663,218.4952,314.4925,213.0751,309.7362,206.6,312.91" style="stroke: #A80036; stroke-width: 1.0;"/><text fill="#000000" font-family="sans-serif" font-size="13" lengthAdjust="spacingAndGlyphs" textLength="23" x="214.4478" y="361.9979">1..*</text><!--link item_lang.ExtPackage to item_lang.PropertyDefinition--><path d="M97.39,385.62 C85.47,400.4 73.75,417.48 66,435 C36.19,502.35 39,524.85 39,598.5 C39,598.5 39,598.5 39,1218 C39,1300.37 50.01,1321.2 74,1400 C80.11,1420.06 88.7,1441.45 96.8,1459.89 " fill="none" id="item_lang.ExtPackage-item_lang.PropertyDefinition" style="stroke: #A80036; stroke-width: 1.0;"/><polygon fill="#A80036" points="106.06,375.29,99.1388,377.3143,98.3454,384.4816,105.2666,382.4573,106.06,375.29" style="stroke: #A80036; stroke-width: 1.0;"/><text fill="#000000" font-family="sans-serif" font-size="13" lengthAdjust="spacingAndGlyphs" textLength="23" x="68.9203" y="1448.9198">1..*</text><!--link item_lang.ExtPackage to item_lang.Type--><path d="M204.66,382.77 C234.08,403.31 268.16,427.11 293.5,444.81 " fill="none" id="item_lang.ExtPackage-item_lang.Type" style="stroke: #A80036; stroke-width: 1.0;"/><polygon fill="#A80036" points="193.65,375.07,196.2788,381.7849,203.4882,381.9409,200.8594,375.2261,193.65,375.07" style="stroke: #A80036; stroke-width: 1.0;"/><text fill="#000000" font-family="sans-serif" font-size="13" lengthAdjust="spacingAndGlyphs" textLength="23" x="259.1688" y="433.8774">1..*</text><!--link item_lang.ExtPackage to item_lang.Constants--><path d="M218.97,367.1 C269.51,385.79 336.95,411.2 396,435 C402.33,437.55 408.9,440.26 415.46,443 " fill="none" id="item_lang.ExtPackage-item_lang.Constants" style="stroke: #A80036; stroke-width: 1.0;"/><polygon fill="#A80036" points="206.5,362.5,210.745,368.3292,217.7585,366.6527,213.5135,360.8235,206.5,362.5" style="stroke: #A80036; stroke-width: 1.0;"/><text fill="#000000" font-family="sans-serif" font-size="13" lengthAdjust="spacingAndGlyphs" textLength="23" x="384.6184" y="452.8767">1..*</text><!--link item_lang.Struct to item_lang.Constant--><path d="M530.04,641.79 C565.95,703.58 630.57,824.98 656,938 C673.76,1016.93 631.16,1044.41 660,1120 C668.59,1142.53 684.94,1163.42 700.79,1179.92 " fill="none" id="item_lang.Struct-item_lang.Constant" style="stroke: #A80036; stroke-width: 1.0;"/><polygon fill="#A80036" points="523.26,630.24,522.8532,637.4396,529.3425,640.5842,529.7493,633.3846,523.26,630.24" style="stroke: #A80036; stroke-width: 1.0;"/><text fill="#000000" font-family="sans-serif" font-size="13" lengthAdjust="spacingAndGlyphs" textLength="23" x="668.0716" y="1168.8157">0..*</text><!--link item_lang.Struct to item_lang.Attribute--><path d="M481.54,641.55 C472.35,657.64 462.07,675.63 453.92,689.89 " fill="none" id="item_lang.Struct-item_lang.Attribute" style="stroke: #A80036; stroke-width: 1.0;"/><polygon fill="#A80036" points="488,630.24,481.5484,633.4614,482.0407,640.6557,488.4922,637.4343,488,630.24" style="stroke: #A80036; stroke-width: 1.0;"/><text fill="#000000" font-family="sans-serif" font-size="13" lengthAdjust="spacingAndGlyphs" textLength="23" x="431.7109" y="678.9759">0..*</text><!--link item_lang.Enum to item_lang.RawType--><path d="M792.73,1130.11 C805.4,1144.69 817.28,1161.79 824,1180 C840.17,1223.83 828.8,1277.42 816.82,1313.87 " fill="none" id="item_lang.Enum-item_lang.RawType" style="stroke: #A80036; stroke-width: 1.0;"/><polygon fill="#FFFFFF" points="783.88,1120.44,784.9795,1127.5668,791.9809,1129.293,790.8815,1122.1662,783.88,1120.44" style="stroke: #A80036; stroke-width: 1.0;"/><!--link item_lang.Enum to item_lang.EnumEntry--><path d="M665.91,1126.02 C634.31,1143.48 598.02,1163.52 567.73,1180.25 " fill="none" id="item_lang.Enum-item_lang.EnumEntry" style="stroke: #A80036; stroke-width: 1.0;"/><polygon fill="#A80036" points="677.32,1119.72,670.1341,1119.1181,666.8146,1125.5197,674.0005,1126.1217,677.32,1119.72" style="stroke: #A80036; stroke-width: 1.0;"/><text fill="#000000" font-family="sans-serif" font-size="13" lengthAdjust="spacingAndGlyphs" textLength="23" x="575.5912" y="1172.7806">1..*</text><!--link item_lang.Type to item_lang.RawType--><path d="M394.16,507.51 C395.44,508.03 396.72,508.52 398,509 C588.46,580.22 806,512.66 806,716 C806,716 806,716 806,842 C806,1025.6 867,1073.04 836,1254 C832.54,1274.18 825.5,1295.66 818.56,1313.68 " fill="none" id="item_lang.Type-item_lang.RawType" style="stroke: #A80036; stroke-width: 1.0;"/><polygon fill="none" points="390.96,513.75,375.63,499.11,396.74,501,390.96,513.75" style="stroke: #A80036; stroke-width: 1.0;"/><!--link item_lang.Type to item_lang.Struct--><path d="M383.59,510.93 C411.54,531.09 445.13,555.32 469.89,573.17 " fill="none" id="item_lang.Type-item_lang.Struct" style="stroke: #A80036; stroke-width: 1.0;"/><polygon fill="none" points="379.18,516.38,367.05,499,387.37,505.03,379.18,516.38" style="stroke: #A80036; stroke-width: 1.0;"/><!--link item_lang.Type to item_lang.Enum--><path d="M395.82,508 C396.55,508.34 397.28,508.67 398,509 C554.98,580.22 726,543.62 726,716 C726,716 726,716 726,842 C726,914.45 733.35,998.94 738.09,1045.86 " fill="none" id="item_lang.Type-item_lang.Enum" style="stroke: #A80036; stroke-width: 1.0;"/><polygon fill="none" points="392.7,514.27,377.82,499.18,398.86,501.7,392.7,514.27" style="stroke: #A80036; stroke-width: 1.0;"/><!--link item_lang.Attribute to item_lang.ScalarAttribute--><path d="M407.7,761.13 C399.11,774.4 390.4,789.38 384,804 C353.82,872.92 303.38,1092.61 283.96,1179.82 " fill="none" id="item_lang.Attribute-item_lang.ScalarAttribute" style="stroke: #A80036; stroke-width: 1.0;"/><polygon fill="none" points="402.11,756.9,419.13,744.28,413.7,764.76,402.11,756.9" style="stroke: #A80036; stroke-width: 1.0;"/><!--link item_lang.Attribute to item_lang.ArrayAttribute--><path d="M374.08,751.42 C342.41,767.72 304.26,787.36 271.94,804 " fill="none" id="item_lang.Attribute-item_lang.ArrayAttribute" style="stroke: #A80036; stroke-width: 1.0;"/><polygon fill="none" points="370.91,745.18,391.89,742.25,377.31,757.63,370.91,745.18" style="stroke: #A80036; stroke-width: 1.0;"/><!--link item_lang.Attribute to item_lang.VariantAttribute--><path d="M449.52,763.83 C453.1,779.44 457.01,796.46 460.22,810.44 " fill="none" id="item_lang.Attribute-item_lang.VariantAttribute" style="stroke: #A80036; stroke-width: 1.0;"/><polygon fill="none" points="442.66,765.23,445.01,744.17,456.3,762.1,442.66,765.23" style="stroke: #A80036; stroke-width: 1.0;"/><!--link item_lang.VariantAttribute to item_lang.AttrRef--><path d="M455.61,884.36 C450.75,902.43 445.27,922.8 441.19,938 " fill="none" id="item_lang.VariantAttribute-item_lang.AttrRef" style="stroke: #A80036; stroke-width: 1.0;"/><polygon fill="#A80036" points="459.01,871.72,453.586,876.4718,455.8861,883.3062,461.3101,878.5544,459.01,871.72" style="stroke: #A80036; stroke-width: 1.0;"/><!--link item_lang.VariantAttribute to item_lang.VariantMapping--><path d="M502.18,881.49 C518.88,900.24 538.25,921.99 552.51,938 " fill="none" id="item_lang.VariantAttribute-item_lang.VariantMapping" style="stroke: #A80036; stroke-width: 1.0;"/><polygon fill="#A80036" points="493.47,871.72,494.4757,878.8606,501.4538,880.6787,500.4481,873.5381,493.47,871.72" style="stroke: #A80036; stroke-width: 1.0;"/><text fill="#000000" font-family="sans-serif" font-size="13" lengthAdjust="spacingAndGlyphs" textLength="23" x="521.3126" y="927.012">1..*</text><!--link item_lang.VariantAttribute to item_lang.Property--><path d="M419.33,881.25 C403.7,897.06 388.24,916.62 380,938 C341.29,1038.36 380.31,1072.47 383,1180 C383.82,1212.88 394.2,1223.08 383,1254 C371.62,1285.43 345.86,1313.98 325.67,1332.83 " fill="none" id="item_lang.VariantAttribute-item_lang.Property" style="stroke: #A80036; stroke-width: 1.0;"/><polygon fill="#A80036" points="429.01,871.91,421.9138,873.192,420.3679,880.2355,427.4641,878.9534,429.01,871.91" style="stroke: #A80036; stroke-width: 1.0;"/><text fill="#000000" font-family="sans-serif" font-size="13" lengthAdjust="spacingAndGlyphs" textLength="23" x="306.8136" y="1321.7985">0..*</text><!--link item_lang.ScalarAttribute to item_lang.Type--><path d="M280.56,1166.56 C283.71,1132.63 288.04,1086.58 292,1046 C299.29,971.31 303.19,952.82 309,878 C320.1,735.13 327.46,563.48 330,499.09 " fill="none" id="item_lang.ScalarAttribute-item_lang.Type" style="stroke: #A80036; stroke-width: 1.0;"/><polygon fill="#FFFFFF" points="279.33,1179.85,283.8668,1174.2449,280.4378,1167.9012,275.901,1173.5063,279.33,1179.85" style="stroke: #A80036; stroke-width: 1.0;"/><!--link item_lang.ScalarAttribute to item_lang.Property--><path d="M283.87,1267.35 C287.43,1289.73 291.48,1315.11 294.33,1332.96 " fill="none" id="item_lang.ScalarAttribute-item_lang.Property" style="stroke: #A80036; stroke-width: 1.0;"/><polygon fill="#A80036" points="281.78,1254.26,278.7722,1260.8139,283.6651,1266.111,286.6729,1259.5571,281.78,1254.26" style="stroke: #A80036; stroke-width: 1.0;"/><text fill="#000000" font-family="sans-serif" font-size="13" lengthAdjust="spacingAndGlyphs" textLength="23" x="267.4427" y="1321.9618">0..*</text><!--link item_lang.ArrayAttribute to item_lang.Type--><path d="M219.11,791.31 C246.78,712.6 300.4,560.06 321.83,499.1 " fill="none" id="item_lang.ArrayAttribute-item_lang.Type" style="stroke: #A80036; stroke-width: 1.0;"/><polygon fill="#FFFFFF" points="214.74,803.74,220.5036,799.4063,218.7201,792.4193,212.9564,796.7529,214.74,803.74" style="stroke: #A80036; stroke-width: 1.0;"/><!--link item_lang.ArrayAttribute to item_lang.Dim--><path d="M189.36,890.91 C176.13,942.14 155.91,1020.4 145.96,1058.93 " fill="none" id="item_lang.ArrayAttribute-item_lang.Dim" style="stroke: #A80036; stroke-width: 1.0;"/><polygon fill="#A80036" points="192.65,878.19,187.2743,882.9965,189.6435,889.8073,195.0192,885.0008,192.65,878.19" style="stroke: #A80036; stroke-width: 1.0;"/><text fill="#000000" font-family="sans-serif" font-size="13" lengthAdjust="spacingAndGlyphs" textLength="23" x="121.5404" y="1047.9241">1..*</text><!--link item_lang.ArrayAttribute to item_lang.Property--><path d="M201.94,891.25 C201.2,947.07 197.88,1040.63 185,1120 C180.58,1147.24 172.59,1152.64 169,1180 C164.73,1212.61 154.67,1224.4 169,1254 C186.79,1290.75 224.96,1318.27 255.19,1335.4 " fill="none" id="item_lang.ArrayAttribute-item_lang.Property" style="stroke: #A80036; stroke-width: 1.0;"/><polygon fill="#A80036" points="202.08,878.24,198.0143,884.1957,201.9481,890.2393,206.0138,884.2836,202.08,878.24" style="stroke: #A80036; stroke-width: 1.0;"/><text fill="#000000" font-family="sans-serif" font-size="13" lengthAdjust="spacingAndGlyphs" textLength="23" x="224.5527" y="1328.384">0..*</text><!--link item_lang.FormulaElement to item_lang.ScalarAttribute--><path d="M410.17,1121.79 C384.12,1140.08 353.01,1161.93 327.3,1179.98 " fill="none" id="item_lang.FormulaElement-item_lang.ScalarAttribute" style="stroke: #A80036; stroke-width: 1.0;"/><polygon fill="none" points="406.47,1115.84,426.86,1110.08,414.51,1127.3,406.47,1115.84" style="stroke: #A80036; stroke-width: 1.0;"/><!--link item_lang.FormulaElement to item_lang.Constant--><path d="M537.14,1118.73 C580.7,1139.41 635.48,1165.42 677.43,1185.34 " fill="none" id="item_lang.FormulaElement-item_lang.Constant" style="stroke: #A80036; stroke-width: 1.0;"/><polygon fill="none" points="533.99,1124.98,518.92,1110.08,539.99,1112.33,533.99,1124.98" style="stroke: #A80036; stroke-width: 1.0;"/><!--link item_lang.FormulaElement to item_lang.EnumEntry--><path d="M477.39,1129.32 C482.28,1145.87 487.74,1164.35 492.36,1179.98 " fill="none" id="item_lang.FormulaElement-item_lang.EnumEntry" style="stroke: #A80036; stroke-width: 1.0;"/><polygon fill="none" points="470.66,1131.24,471.71,1110.08,484.09,1127.28,470.66,1131.24" style="stroke: #A80036; stroke-width: 1.0;"/><!--link item_lang.EnumEntry to item_lang.Formula--><path d="M513.73,1267.19 C526.84,1333.45 546.22,1455.04 537,1559 C535.09,1580.54 530.64,1604.66 526.92,1622.43 " fill="none" id="item_lang.EnumEntry-item_lang.Formula" style="stroke: #A80036; stroke-width: 1.0;"/><polygon fill="#A80036" points="511.12,1254.31,508.3931,1260.9856,513.5063,1266.0703,516.2333,1259.3947,511.12,1254.31" style="stroke: #A80036; stroke-width: 1.0;"/><!--link item_lang.Dim to item_lang.Formula--><path d="M140.14,1120.26 C140.89,1154.93 143.66,1208.51 153,1254 C154.8,1262.77 250.66,1552.68 257,1559 C316.08,1617.98 415.41,1638.11 473.92,1644.97 " fill="none" id="item_lang.Dim-item_lang.Formula" style="stroke: #A80036; stroke-width: 1.0;"/><polygon fill="#A80036" points="139.93,1107.08,136.0295,1113.1452,140.128,1119.0784,144.0285,1113.0132,139.93,1107.08" style="stroke: #A80036; stroke-width: 1.0;"/><!--link item_lang.AttrRef to item_lang.FormulaElement--><path d="M443.8,999.11 C448.27,1017.44 453.59,1039.27 457.65,1055.94 " fill="none" id="item_lang.AttrRef-item_lang.FormulaElement" style="stroke: #A80036; stroke-width: 1.0;"/><polygon fill="#FFFFFF" points="440.66,986.23,438.1912,993.0053,443.4959,997.8901,445.9646,991.1148,440.66,986.23" style="stroke: #A80036; stroke-width: 1.0;"/><!--link item_lang.VariantMapping to item_lang.Formula--><path d="M581.72,999.01 C591.61,1041.84 607.12,1115.63 613,1180 C628.62,1350.87 558.83,1551.73 531.54,1622.36 " fill="none" id="item_lang.VariantMapping-item_lang.Formula" style="stroke: #A80036; stroke-width: 1.0;"/><polygon fill="#A80036" points="578.73,986.25,576.1999,993.0027,581.4601,997.9353,583.9902,991.1826,578.73,986.25" style="stroke: #A80036; stroke-width: 1.0;"/><!--link item_lang.VariantMapping to item_lang.Struct--><path d="M568.78,924.7 C564.87,892.79 558.52,845.16 551,804 C539.64,741.82 522.39,669.86 512.56,630.34 " fill="none" id="item_lang.VariantMapping-item_lang.Struct" style="stroke: #A80036; stroke-width: 1.0;"/><polygon fill="#FFFFFF" points="570.36,937.76,573.613,931.3243,568.9235,925.8463,565.6705,932.282,570.36,937.76" style="stroke: #A80036; stroke-width: 1.0;"/><!--link item_lang.Formula to item_lang.Sum--><path d="M521,1696.76 C521,1711.55 521,1727.3 521,1739.72 " fill="none" id="item_lang.Formula-item_lang.Sum" style="stroke: #A80036; stroke-width: 1.0;"/><polygon fill="none" points="514,1696.59,521,1676.59,528,1696.59,514,1696.59" style="stroke: #A80036; stroke-width: 1.0;"/><!--link item_lang.Sum to item_lang.Dif--><path d="M515.59,1800.87 C513.25,1816.33 510.59,1833.96 508.52,1847.68 " fill="none" id="item_lang.Sum-item_lang.Dif" style="stroke: #A80036; stroke-width: 1.0;"/><polygon fill="#A80036" points="517.53,1788,512.6842,1793.3403,515.7499,1799.8672,520.5957,1794.527,517.53,1788" style="stroke: #A80036; stroke-width: 1.0;"/><text fill="#000000" font-family="sans-serif" font-size="13" lengthAdjust="spacingAndGlyphs" textLength="23" x="483.5749" y="1837.007">1..*</text><!--link item_lang.Dif to item_lang.Mul--><path d="M504.66,1909.34 C504.51,1924.68 504.35,1942.1 504.22,1955.68 " fill="none" id="item_lang.Dif-item_lang.Mul" style="stroke: #A80036; stroke-width: 1.0;"/><polygon fill="#A80036" points="504.78,1896,500.7274,1901.9646,504.6745,1907.9995,508.7271,1902.0349,504.78,1896" style="stroke: #A80036; stroke-width: 1.0;"/><text fill="#000000" font-family="sans-serif" font-size="13" lengthAdjust="spacingAndGlyphs" textLength="23" x="478.4705" y="1945.007">1..*</text><!--link item_lang.Mul to item_lang.Div--><path d="M504.34,2017.34 C504.49,2032.68 504.65,2050.1 504.78,2063.68 " fill="none" id="item_lang.Mul-item_lang.Div" style="stroke: #A80036; stroke-width: 1.0;"/><polygon fill="#A80036" points="504.22,2004,500.2729,2010.0349,504.3255,2015.9995,508.2726,2009.9646,504.22,2004" style="stroke: #A80036; stroke-width: 1.0;"/><text fill="#000000" font-family="sans-serif" font-size="13" lengthAdjust="spacingAndGlyphs" textLength="23" x="478.9232" y="2053.007">1..*</text><!--link item_lang.Div to item_lang.Val--><path d="M523.3,2124.12 C531.11,2139.11 540.22,2156.6 548.09,2171.71 " fill="none" id="item_lang.Div-item_lang.Val" style="stroke: #A80036; stroke-width: 1.0;"/><polygon fill="#A80036" points="517.1,2112.23,516.3288,2119.3997,522.6503,2122.8693,523.4216,2115.6995,517.1,2112.23" style="stroke: #A80036; stroke-width: 1.0;"/><text fill="#000000" font-family="sans-serif" font-size="13" lengthAdjust="spacingAndGlyphs" textLength="23" x="519.6732" y="2160.8453">1..*</text><!--link item_lang.Val to item_lang.AttrRef--><path d="M579.7,2158.94 C590.4,2113.22 604,2042.96 604,1981 C604,1356 604,1356 604,1356 C604,1286 587.72,1103.64 548,1046 C528.94,1018.34 497.59,996.38 472.74,982.02 " fill="none" id="item_lang.Val-item_lang.AttrRef" style="stroke: #A80036; stroke-width: 1.0;"/><polygon fill="#A80036" points="576.62,2171.73,581.9089,2166.8283,579.4185,2160.0609,574.1295,2164.9626,576.62,2171.73" style="stroke: #A80036; stroke-width: 1.0;"/><!--link item_lang.Val to item_lang.Sum--><path d="M568.1,2158.78 C568.8,2089.04 566.91,1957.71 547,1848 C543.25,1827.35 535.91,1804.65 529.98,1788.22 " fill="none" id="item_lang.Val-item_lang.Sum" style="stroke: #A80036; stroke-width: 1.0;"/><polygon fill="#A80036" points="567.93,2171.89,572.0088,2165.9433,568.0882,2159.891,564.0095,2165.8378,567.93,2171.89" style="stroke: #A80036; stroke-width: 1.0;"/><!--link item_lang.PropertySet to item_lang.PropertySet--><path d="M202.38,449.5 C215.04,452.19 224,459.69 224,472 C224,488.24 208.4,496.11 189.27,495.6 " fill="none" id="item_lang.PropertySet-item_lang.PropertySet" style="stroke: #A80036; stroke-width: 1.0;"/><polygon fill="#FFFFFF" points="189.27,448.4,194.9097,452.8937,201.2269,449.4162,195.5872,444.9225,189.27,448.4" style="stroke: #A80036; stroke-width: 1.0;"/><!--link item_lang.PropertySet to item_lang.PropertyDefinition--><path d="M119.05,515.02 C101.31,562.86 76,643.75 76,716 C76,716 76,716 76,1218 C76,1303.82 95.01,1402.32 108.03,1459.75 " fill="none" id="item_lang.PropertySet-item_lang.PropertyDefinition" style="stroke: #A80036; stroke-width: 1.0;"/><polygon fill="#A80036" points="123.71,502.72,117.8412,506.9101,119.4518,513.9391,125.3206,509.7489,123.71,502.72" style="stroke: #A80036; stroke-width: 1.0;"/><text fill="#000000" font-family="sans-serif" font-size="13" lengthAdjust="spacingAndGlyphs" textLength="23" x="107.9639" y="1448.7601">1..*</text><!--link item_lang.PropertyDefinition to item_lang.ApplicableFor--><path d="M120,1572.47 C120,1588.55 120,1605.16 120,1618.73 " fill="none" id="item_lang.PropertyDefinition-item_lang.ApplicableFor" style="stroke: #A80036; stroke-width: 1.0;"/><polygon fill="#A80036" points="120,1559.15,116,1565.15,120,1571.15,124,1565.15,120,1559.15" style="stroke: #A80036; stroke-width: 1.0;"/><text fill="#000000" font-family="sans-serif" font-size="13" lengthAdjust="spacingAndGlyphs" textLength="23" x="94.6281" y="1607.9375">0..*</text><!--link item_lang.Property to item_lang.PropertyDefinition--><path d="M260.46,1389.74 C236.45,1410.04 204.83,1436.78 177.67,1459.74 " fill="none" id="item_lang.Property-item_lang.PropertyDefinition" style="stroke: #A80036; stroke-width: 1.0;"/><polygon fill="#FFFFFF" points="270.58,1381.19,263.4159,1382.0116,261.4189,1388.9407,268.583,1388.1191,270.58,1381.19" style="stroke: #A80036; stroke-width: 1.0;"/><!--link item_lang.Property to item_lang.TextValue--><path d="M303.53,1394.21 C307.49,1420.11 312.75,1454.53 316.46,1478.81 " fill="none" id="item_lang.Property-item_lang.TextValue" style="stroke: #A80036; stroke-width: 1.0;"/><polygon fill="#A80036" points="301.54,1381.19,298.4885,1387.7236,303.3459,1393.0533,306.3974,1386.5197,301.54,1381.19" style="stroke: #A80036; stroke-width: 1.0;"/><!--link item_lang.Property to item_lang.NumberValue--><path d="M333.05,1390.36 C363.98,1418.92 408.33,1459.87 435.86,1485.29 " fill="none" id="item_lang.Property-item_lang.NumberValue" style="stroke: #A80036; stroke-width: 1.0;"/><polygon fill="#A80036" points="323.11,1381.19,324.8087,1388.1982,331.9312,1389.3255,330.2324,1382.3174,323.11,1381.19" style="stroke: #A80036; stroke-width: 1.0;"/><!--link item_lang.Constants to item_lang.Constant--><path d="M557.45,485.58 C645.19,501.42 780.48,531.19 815,569 C859.84,618.12 843,649.49 843,716 C843,716 843,716 843,963 C843,1033.29 852.25,1055.64 824,1120 C814.22,1142.28 797.5,1163.29 781.71,1179.94 " fill="none" id="item_lang.Constants-item_lang.Constant" style="stroke: #A80036; stroke-width: 1.0;"/><polygon fill="#A80036" points="544.6,483.29,549.8088,488.2768,556.4154,485.3867,551.2066,480.3999,544.6,483.29" style="stroke: #A80036; stroke-width: 1.0;"/><text fill="#000000" font-family="sans-serif" font-size="13" lengthAdjust="spacingAndGlyphs" textLength="23" x="763.9112" y="1168.8394">1..*</text><!--link item_lang.Constant to item_lang.RawType--><path d="M762.47,1266.7 C768.9,1282.01 775.95,1298.79 782.19,1313.62 " fill="none" id="item_lang.Constant-item_lang.RawType" style="stroke: #A80036; stroke-width: 1.0;"/><polygon fill="#FFFFFF" points="757.24,1254.26,755.8799,1261.3417,761.8937,1265.3209,763.2538,1258.2392,757.24,1254.26" style="stroke: #A80036; stroke-width: 1.0;"/><!--link item_lang.Constant to item_lang.Formula--><path d="M719.74,1266.48 C713.41,1281.5 706.91,1298.24 702,1314 C668.9,1420.28 711.62,1466.3 650,1559 C630.01,1589.08 596.15,1612 568.14,1627.11 " fill="none" id="item_lang.Constant-item_lang.Formula" style="stroke: #A80036; stroke-width: 1.0;"/><polygon fill="#A80036" points="724.98,1254.33,718.9314,1258.2561,720.2291,1265.3495,726.2777,1261.4234,724.98,1254.33" style="stroke: #A80036; stroke-width: 1.0;"/><!--link item_lang.NumberValue to item_lang.Formula--><path d="M476.27,1545.63 C486.61,1569.41 500.05,1600.31 509.49,1622.02 " fill="none" id="item_lang.NumberValue-item_lang.Formula" style="stroke: #A80036; stroke-width: 1.0;"/><polygon fill="#A80036" points="471.04,1533.6,469.7566,1540.696,475.8131,1544.6099,477.0965,1537.5139,471.04,1533.6" style="stroke: #A80036; stroke-width: 1.0;"/><rect fill="#DDDDDD" height="160.6719" rx="5" ry="5" style="stroke: #000000; stroke-width: 1.0;" width="487" x="221.5" y="2296"/><text fill="#000000" font-family="sans-serif" font-size="14" lengthAdjust="spacingAndGlyphs" textLength="85" x="227.5" y="2313.9951">Match rules:</text><text fill="#000000" font-family="sans-serif" font-size="14" font-weight="bold" lengthAdjust="spacingAndGlyphs" textLength="44" x="232.5" y="2332.292">Name</text><text fill="#000000" font-family="sans-serif" font-size="14" font-weight="bold" lengthAdjust="spacingAndGlyphs" textLength="91" x="366.5" y="2332.292">Rule details</text><text fill="#000000" font-family="sans-serif" font-size="14" lengthAdjust="spacingAndGlyphs" textLength="126" x="231.5" y="2348.5889">ApplicableForType</text><text fill="#000000" font-family="sans-serif" font-size="14" lengthAdjust="spacingAndGlyphs" textLength="144" x="365.5" y="2348.5889">rawtype|struct|enum</text><text fill="#000000" font-family="sans-serif" font-size="14" lengthAdjust="spacingAndGlyphs" textLength="29" x="231.5" y="2364.8857">FQN</text><text fill="#000000" font-family="sans-serif" font-size="14" lengthAdjust="spacingAndGlyphs" textLength="57" x="365.5" y="2364.8857">ID (. ID)*</text><text fill="#000000" font-family="sans-serif" font-size="14" lengthAdjust="spacingAndGlyphs" textLength="120" x="231.5" y="2381.1826">ValueClassificator</text><text fill="#000000" font-family="sans-serif" font-size="14" lengthAdjust="spacingAndGlyphs" textLength="95" x="365.5" y="2381.1826">CONST|ENUM</text><text fill="#000000" font-family="sans-serif" font-size="14" lengthAdjust="spacingAndGlyphs" textLength="81" x="231.5" y="2397.4795">HexNumber</text><text fill="#000000" font-family="sans-serif" font-size="14" lengthAdjust="spacingAndGlyphs" textLength="100" x="365.5" y="2397.4795">0x[0-9a-fA-F]+</text><text fill="#000000" font-family="sans-serif" font-size="14" lengthAdjust="spacingAndGlyphs" textLength="76" x="231.5" y="2413.7764">ExtNumber</text><text fill="#000000" font-family="sans-serif" font-size="14" lengthAdjust="spacingAndGlyphs" textLength="61" x="365.5" y="2413.7764">NUMBER</text><text fill="#000000" font-family="sans-serif" font-size="14" lengthAdjust="spacingAndGlyphs" textLength="85" x="231.5" y="2430.0732">InternalType</text><text fill="#000000" font-family="sans-serif" font-size="14" lengthAdjust="spacingAndGlyphs" textLength="333" x="365.5" y="2430.0732">INT|UINT|FLOAT|STRING|BOOL|ATTRTYPE|ENUM</text><text fill="#000000" font-family="sans-serif" font-size="14" lengthAdjust="spacingAndGlyphs" textLength="68" x="231.5" y="2446.3701">Comment</text><text fill="#000000" font-family="sans-serif" font-size="14" lengthAdjust="spacingAndGlyphs" textLength="40" x="365.5" y="2446.3701">\/\/.*$</text><line style="stroke: #000000; stroke-width: 1.0;" x1="227.5" x2="702.5" y1="2319.2969" y2="2319.2969"/><line style="stroke: #000000; stroke-width: 1.0;" x1="227.5" x2="702.5" y1="2335.5938" y2="2335.5938"/><line style="stroke: #000000; stroke-width: 1.0;" x1="227.5" x2="702.5" y1="2351.8906" y2="2351.8906"/><line style="stroke: #000000; stroke-width: 1.0;" x1="227.5" x2="702.5" y1="2368.1875" y2="2368.1875"/><line style="stroke: #000000; stroke-width: 1.0;" x1="227.5" x2="702.5" y1="2384.4844" y2="2384.4844"/><line style="stroke: #000000; stroke-width: 1.0;" x1="227.5" x2="702.5" y1="2400.7813" y2="2400.7813"/><line style="stroke: #000000; stroke-width: 1.0;" x1="227.5" x2="702.5" y1="2417.0781" y2="2417.0781"/><line style="stroke: #000000; stroke-width: 1.0;" x1="227.5" x2="702.5" y1="2433.375" y2="2433.375"/><line style="stroke: #000000; stroke-width: 1.0;" x1="227.5" x2="702.5" y1="2449.6719" y2="2449.6719"/><line style="stroke: #000000; stroke-width: 1.0;" x1="227.5" x2="227.5" y1="2319.2969" y2="2449.6719"/><line style="stroke: #000000; stroke-width: 1.0;" x1="361.5" x2="361.5" y1="2319.2969" y2="2449.6719"/><line style="stroke: #000000; stroke-width: 1.0;" x1="702.5" x2="702.5" y1="2319.2969" y2="2449.6719"/><!--
@startuml
set namespaceSeparator .


class item_lang.Model  {
}


class item_lang.NestedPackage  {
  name : ID
  description : STRING
}


class item_lang.Package  {
  name : ID
  description : STRING
}


class item_lang.ExtPackage  {
  name : ID
  description : STRING
}


class item_lang.Struct  {
  name : ID
}


class item_lang.RawType  {
  name : ID
  internaltype : InternalType
  bits : INT
}


class item_lang.Enum  {
  name : ID
  description : STRING
}


class item_lang.Type <<abstract>> {
}


class item_lang.Attribute <<abstract>> {
}


class item_lang.VariantAttribute  {
  name : ID
}


class item_lang.ScalarAttribute  {
  embedded : optional<BOOL>
  name : ID
}


class item_lang.ArrayAttribute  {
  embedded : optional<BOOL>
  name : ID
}


class item_lang.FormulaElement <<abstract>> {
}


class item_lang.EnumEntry  {
  name : ID
  description : STRING
}


class item_lang.Dim  {
}


class item_lang.AttrRef  {
}


class item_lang.VariantMapping  {
}


class item_lang.Import  {
  importURI : STRING
}


class item_lang.Formula <<abstract>> {
}


class item_lang.Sum  {
}


class item_lang.Dif  {
}


class item_lang.Mul  {
}


class item_lang.Div  {
}


class item_lang.Val  {
  valueClassificator : ValueClassificator
  value : ExtNumber
}


class item_lang.PropertySet  {
  name : ID
}


class item_lang.PropertyDefinition  {
  optional : optional<BOOL>
  name : ID
  internaltype : InternalType
  description : STRING
}


class item_lang.ApplicableFor  {
  what : ApplicableForType
}


class item_lang.Property  {
}


class item_lang.Constants  {
  name : ID
  description : STRING
}


class item_lang.Constant  {
  name : ID
  description : STRING
}


class item_lang.TextValue  {
  x : STRING
}


class item_lang.NumberValue  {
}


item_lang.Model *- - "0..*" item_lang.Import
item_lang.Model *- - "1..*" item_lang.ExtPackage
item_lang.Model *- - item_lang.Package
item_lang.NestedPackage *- - item_lang.NestedPackage
item_lang.NestedPackage o- - item_lang.PropertySet
item_lang.NestedPackage *- - "1..*" item_lang.PropertySet
item_lang.NestedPackage *- - "1..*" item_lang.Type
item_lang.NestedPackage *- - "1..*" item_lang.Constants
item_lang.Package *- - item_lang.NestedPackage
item_lang.Package o- - item_lang.PropertySet
item_lang.Package *- - "1..*" item_lang.PropertySet
item_lang.Package *- - "1..*" item_lang.Type
item_lang.Package *- - "1..*" item_lang.Constants
item_lang.ExtPackage o- - item_lang.PropertySet
item_lang.ExtPackage *- - "1..*" item_lang.ExtPackage
item_lang.ExtPackage *- - "1..*" item_lang.PropertyDefinition
item_lang.ExtPackage *- - "1..*" item_lang.Type
item_lang.ExtPackage *- - "1..*" item_lang.Constants
item_lang.Struct *- - "0..*" item_lang.Constant
item_lang.Struct *- - "0..*" item_lang.Attribute
item_lang.Enum o- - item_lang.RawType
item_lang.Enum *- - "1..*" item_lang.EnumEntry
item_lang.Type <|- - item_lang.RawType
item_lang.Type <|- - item_lang.Struct
item_lang.Type <|- - item_lang.Enum
item_lang.Attribute <|- - item_lang.ScalarAttribute
item_lang.Attribute <|- - item_lang.ArrayAttribute
item_lang.Attribute <|- - item_lang.VariantAttribute
item_lang.VariantAttribute *- - item_lang.AttrRef
item_lang.VariantAttribute *- - "1..*" item_lang.VariantMapping
item_lang.VariantAttribute *- - "0..*" item_lang.Property
item_lang.ScalarAttribute o- - item_lang.Type
item_lang.ScalarAttribute *- - "0..*" item_lang.Property
item_lang.ArrayAttribute o- - item_lang.Type
item_lang.ArrayAttribute *- - "1..*" item_lang.Dim
item_lang.ArrayAttribute *- - "0..*" item_lang.Property
item_lang.FormulaElement <|- - item_lang.ScalarAttribute
item_lang.FormulaElement <|- - item_lang.Constant
item_lang.FormulaElement <|- - item_lang.EnumEntry
item_lang.EnumEntry *- - item_lang.Formula
item_lang.Dim *- - item_lang.Formula
item_lang.AttrRef o- - item_lang.FormulaElement
item_lang.VariantMapping *- - item_lang.Formula
item_lang.VariantMapping o- - item_lang.Struct
item_lang.Formula <|- - item_lang.Sum
item_lang.Sum *- - "1..*" item_lang.Dif
item_lang.Dif *- - "1..*" item_lang.Mul
item_lang.Mul *- - "1..*" item_lang.Div
item_lang.Div *- - "1..*" item_lang.Val
item_lang.Val *- - item_lang.AttrRef
item_lang.Val *- - item_lang.Sum
item_lang.PropertySet o- - item_lang.PropertySet
item_lang.PropertySet *- - "1..*" item_lang.PropertyDefinition
item_lang.PropertyDefinition *- - "0..*" item_lang.ApplicableFor
item_lang.Property o- - item_lang.PropertyDefinition
item_lang.Property *- - item_lang.TextValue
item_lang.Property *- - item_lang.NumberValue
item_lang.Constants *- - "1..*" item_lang.Constant
item_lang.Constant o- - item_lang.RawType
item_lang.Constant *- - item_lang.Formula
item_lang.NumberValue *- - item_lang.Formula

legend
  Match rules:
  |= Name  |= Rule details |
  | ApplicableForType | rawtype\|struct\|enum |
  | FQN | ID (. ID)* |
  | ValueClassificator | CONST\|ENUM |
  | HexNumber | 0x[0-9a-fA-F]+ |
  | ExtNumber | NUMBER |
  | InternalType | INT\|UINT\|FLOAT\|STRING\|BOOL\|ATTRTYPE\|ENUM |
  | Comment | \\/\\/.*$ |
end legend

@enduml

PlantUML version 1.2018.13(Mon Nov 26 18:11:51 CET 2018)
(GPL source distribution)
Java Runtime: OpenJDK Runtime Environment
JVM: OpenJDK 64-Bit Server VM
Java Version: 11.0.9.1+1-Ubuntu-0ubuntu1.20.04
Operating System: Linux
OS Version: 5.8.0-36-generic
Default Encoding: UTF-8
Language: en
Country: US
--></g></svg>